<svg xmlns="http://www.w3.org/2000/svg" xml:space="preserve" id="svg1" width="284.633" height="551.867" viewBox="0 0 75.309 146.015"><g id="layer1" transform="translate(-62.098 -79.847)"><path id="path1" d="M68.23 122.134c-1.772.872-3.956 1.374-5.15 3.081-3.694 5.286 4.018 4.8 6.835 2.718.504 2.98-.243 6.35-.358 9.371-.24 6.302-.339 12.673-.875 18.956-.183 2.142-1.032 4.205-1.152 6.317-.117 2.053 1.005 3.734 1.33 5.7.54 3.27.929 7.9.574 11.201-.27 2.517-1.236 4.926-1.49 7.475-.48 4.797-.12 9.525.1 14.32.176 3.852.312 7.927 2.001 11.468 2.491 5.22 7.36 8.557 12.592 10.607 3.643 1.427 7.698 1.98 11.575 2.27 12.173.912 29.006-.202 35.287-12.656 1.868-3.704 1.971-7.992 2.169-12.05.253-5.192.519-10.428-.138-15.605-.25-1.967-1.192-3.81-1.33-5.774-.247-3.512.11-8.094.714-11.554.32-1.842 1.32-3.5 1.244-5.412-.067-1.684-.918-3.225-1.03-4.921-.647-9.71-1.43-19.795-1.532-29.525 1.749.77 3.793 1.807 5.755 1.622 1.93-.18 2.553-2.196 1.647-3.786-1.135-1.993-3.606-2.844-5.531-3.823 1.272-3.985.748-8.955.748-13.097 0-7.246-.454-14.28-5.442-20.001-6.882-7.895-16.857-9.123-26.734-9.186-9.974-.064-20.496 1.143-27.286 9.388-4.902 5.952-5.27 12.8-5.27 20.174 0 4.062-.52 8.81.748 12.722m12.722-34.425c-.819 2.468-3.123 4.596-5.328 5.898-.586.345-2.307 1.435-2.795.443-.455-.924.833-2.039 1.388-2.599 1.614-1.63 4.22-4.536 6.735-3.742m41.72 48.082c-14.197-5.067-31.361-4.093-45.649 0-1.355-4.945-1.757-10.383-2.501-15.459-.304-2.07-1.074-4.615-.076-6.575 2.168-4.26 7.877-6.973 12.165-8.415 11.54-3.88 31.377-3.403 38.608 8.446 1.102 1.806.18 3.884-.044 5.797-.614 5.22-.723 11.233-2.502 16.206m-3.93-48.082c2.516-.794 5.121 2.112 6.736 3.742.554.56 1.843 1.675 1.388 2.599-.488.992-2.21-.098-2.795-.443-2.194-1.295-4.556-3.425-5.328-5.898m-35.468 54.335c.862-1.392 2.562-1.53 4.044-1.568 3.112-.078 6.235-.008 9.347-.008 4.616 0 9.231-.011 13.845 0 2.088.005 4.455-.263 5.726 1.757 1.475 2.345.534 6.408.667 9.062.107 2.14.745 5.183-.422 7.126-.782 1.302-2.368 1.441-3.743 1.495-3.228.127-6.48.017-9.712.017H88.436c-1.579 0-4.173.366-5.285-1.075-1.744-2.258-.625-7.327-.531-9.98.074-2.09-.501-4.955.657-6.826m-3.994 42.439c.791-.72 2.951.02 3.887.166 3.798.595 7.528 1.064 11.362 1.36 6.496.501 12.987.018 19.418-.945 1.333-.2 5.732-1.676 6.688-.45.571.732.359 2.135.35 2.997-.032 2.728-.44 5.48-.338 8.206.09 2.39 1.015 8.604-.896 10.392-2.28 2.133-6.403 3.368-9.354 4.117-9.057 2.3-22.544 2.262-30.296-3.9-1.28-1.019-.916-3.136-.99-4.625-.202-4.038-.093-8.074-.236-12.112-.047-1.323-.729-4.176.405-5.206m-5.627 27.64c2.288-1.106 8.91 2.258 8.184 5.35-.29 1.233-2.117.466-2.805.122-2.466-1.233-4.267-2.969-5.379-5.472m43.78 5.613c1.087-2.45 2.834-4.403 5.31-5.541.71-.327 2.584-1.033 2.873.19.705 2.994-5.98 6.416-8.184 5.35" style="fill:currentColor"/></g></svg>