<svg xmlns="http://www.w3.org/2000/svg" xml:space="preserve" id="svg1" width="256" height="589.06" viewBox="0 0 67.733 155.855"><g id="layer1" transform="translate(-84.169 -74.262)"><path id="path1" d="M84.169 136.631c3.41-1.58 6.285-5.038 9.172-7.436 1.183-.983 2.867-2.747 4.585-2.213 3.996 1.242 2.638 9.298 2.855 12.471.912 13.327 1.732 26.85 1.732 40.217h.353l1.058-26.105h.353l1.764 61.383h.353l2.116-76.2h.353l.353 8.467h.353l.705-9.173h.353l2.117 70.203h.353l1.41-44.45h.353l1.412 50.447h.352l1.059-45.155h.352l1.412 61.03h.352l2.117-79.375h.353l.705 16.58h.353l.706-17.99h.352l1.764 67.027h.353l.353-9.172.353-13.406 1.058-35.63h.353l1.058 32.102h.353l1.058-33.513h.353l1.764 49.388h.353c0-19.773 1.764-39.505 1.764-59.266 0-4.811-.118-10.042.453-14.817.222-1.853.416-3.845 2.343-4.705 1.77-.79 3.373.823 4.612 1.883 2.839 2.43 5.764 5.847 9.172 7.408v-23.989l-.362-9.728-5.635-5.188-13.406-11.56-10.23-8.82-4.234-3.084-4.233 3.057-10.23 8.81-13.053 11.248-5.988 5.447-.362 9.818z" style="fill:currentColor"/></g></svg>