<?xml version="1.0" encoding="UTF-8" standalone="no"?>
<!-- Created with Inkscape (http://www.inkscape.org/) -->

<svg
   version="1.1"
   id="svg1"
   width="1516"
   height="1516"
   viewBox="0 0 1516 1516"
   sodipodi:docname="marble-trace-logo.png"
   inkscape:version="1.4.2 (f4327f4, 2025-05-13)"
   xmlns:inkscape="http://www.inkscape.org/namespaces/inkscape"
   xmlns:sodipodi="http://sodipodi.sourceforge.net/DTD/sodipodi-0.dtd"
   xmlns="http://www.w3.org/2000/svg"
   xmlns:svg="http://www.w3.org/2000/svg">
  <defs
     id="defs1" />
  <sodipodi:namedview
     id="namedview1"
     pagecolor="#9b5a7b"
     bordercolor="#000000"
     borderopacity="0.25"
     inkscape:showpageshadow="2"
     inkscape:pageopacity="0.0"
     inkscape:pagecheckerboard="true"
     inkscape:deskcolor="#d1d1d1"
     inkscape:zoom="0.80145119"
     inkscape:cx="757.37613"
     inkscape:cy="758.62387"
     inkscape:window-width="1928"
     inkscape:window-height="1294"
     inkscape:window-x="1082"
     inkscape:window-y="83"
     inkscape:window-maximized="0"
     inkscape:current-layer="svg1" />
  <g
     id="g7">
    <path
       style="fill:#000000;stroke-width:1.24774"
       d="m 39.813868,1191.9004 c 0.440594,-1.8872 1.594098,-8.2039 2.563342,-14.037 2.009746,-12.0952 7.080067,-37.8631 7.563999,-38.441 0.177319,-0.2118 2.416843,0.4901 4.976718,1.5597 2.559877,1.0695 5.568342,1.9481 6.68548,1.9523 1.117139,0 3.434865,0.7279 5.150502,1.6081 1.715638,0.8801 5.926749,2.6353 9.358025,3.9004 8.985133,3.3126 24.594356,10.7477 27.091796,12.9046 3.77247,3.2581 5.5387,1.0842 6.37235,-7.8432 0.8736,-9.3552 -0.47995,-13.3704 -5.4666,-16.2163 -7.389486,-4.2173 -18.690925,-9.2138 -26.749809,-11.8267 -24.856719,-8.0589 -24.60541,-7.8519 -21.211523,-17.4712 1.029383,-2.9176 1.871605,-7.2271 1.871605,-9.5768 0,-2.3497 0.769312,-5.7884 1.709583,-7.6415 0.940269,-1.8531 2.099198,-6.1767 2.575397,-9.608 0.476198,-3.4313 1.371709,-7.9231 1.990024,-9.9819 1.782263,-5.9343 7.596668,-29.3922 8.814239,-35.5605 0.609571,-3.0881 1.91813,-7.58 2.907907,-9.9819 0.989778,-2.4019 2.135622,-6.3323 2.546318,-8.7342 0.410697,-2.4018 1.484096,-5.3378 2.385331,-6.5242 1.548853,-2.039 2.008031,-2.0264 8.382888,0.2308 3.709354,1.3134 9.270947,3.8026 12.35909,5.5316 3.08815,1.7291 9.54519,5.1068 14.34898,7.5062 4.80378,2.3993 10.4186,5.5093 12.47736,6.9111 2.05877,1.4018 4.33227,2.5524 5.05223,2.5569 1.92542,0.012 4.3058,-7.4921 4.3058,-13.5741 0,-4.3652 -0.66501,-5.8544 -3.7877,-8.482 -6.06456,-5.103 -12.39757,-9.1291 -14.35989,-9.1291 -0.99891,0 -1.8162,-0.5005 -1.8162,-1.1122 0,-0.6118 -2.3863,-2.05541 -5.30288,-3.20809 -2.91658,-1.15268 -9.68367,-4.16144 -15.037961,-6.6861 l -9.735082,-4.59031 0.792337,-4.36708 c 0.435783,-2.40189 1.535372,-6.05152 2.44353,-8.11028 0.908156,-2.05877 2.027912,-5.42766 2.488346,-7.48642 0.460433,-2.05877 1.588891,-5.42766 2.507685,-7.48642 0.918792,-2.05877 1.945132,-5.42766 2.280755,-7.48642 0.335624,-2.05877 3.50939,-11.88469 7.05282,-21.83539 3.54342,-9.9507 6.87656,-19.77663 7.40697,-21.83539 0.53041,-2.05877 1.89568,-5.54014 3.03393,-7.7364 1.13825,-2.19625 2.06955,-4.88304 2.06955,-5.97064 0,-1.08762 0.95303,-3.50179 2.11783,-5.36484 1.16481,-1.86306 2.21522,-3.54878 2.33424,-3.74603 0.43407,-0.71941 6.77756,2.65956 6.77756,3.61019 0,0.92369 2.80371,2.69489 9.98189,6.30591 1.71564,0.86304 5.72393,3.69791 8.90732,6.29969 3.18339,2.60178 6.3718,4.73051 7.08536,4.73051 0.71357,0 2.03935,0.72033 2.94618,1.60073 2.59714,2.52144 9.86562,7.45296 10.25469,6.95761 0.19356,-0.24643 1.31405,-3.96016 2.48997,-8.25272 2.50686,-9.15105 2.59549,-8.9563 -8.68567,-19.08562 -7.50894,-6.74224 -13.46879,-10.81499 -26.38159,-18.02823 -4.47052,-2.49728 -6.51179,-4.36618 -6.13271,-5.61482 1.61822,-5.33013 3.79643,-11.12766 5.85989,-15.5967 1.26743,-2.74502 2.66953,-6.53502 3.11576,-8.42223 0.44623,-1.8872 1.31194,-3.43127 1.92381,-3.43127 0.61186,0 1.11247,-0.82317 1.11247,-1.82927 0,-1.0061 0.92356,-3.95388 2.05236,-6.55062 1.1288,-2.59674 2.7627,-6.40579 3.63089,-8.46456 2.68669,-6.37101 7.13351,-16.1279 8.24573,-18.09218 0.58286,-1.02938 1.41862,-2.71382 1.85725,-3.74321 3.97413,-9.32648 16.65683,-36.43027 17.48459,-37.36575 0.27133,-0.30663 1.73973,0.70257 3.26311,2.24269 10.71402,10.83174 32.94967,31.31436 34.02648,31.34389 1.94639,0.0534 6.79926,-10.68385 6.79926,-15.04371 0,-3.11505 -2.04171,-5.80883 -11.55951,-15.25138 -6.35774,-6.30747 -13.985,-14.10887 -16.9495,-17.33644 l -5.38999,-5.86833 2.15482,-4.11356 c 1.18516,-2.26247 2.63613,-5.09617 3.2244,-6.29712 0.58827,-1.20094 1.59007,-3.16613 2.22622,-4.36708 0.63616,-1.20094 1.4826,-3.02576 1.88098,-4.05514 0.39839,-1.02938 3.25808,-6.36346 6.35487,-11.8535 3.0968,-5.49004 6.42903,-11.71103 7.40496,-13.82443 0.97593,-2.11339 2.64908,-4.56844 3.7181,-5.45566 1.06904,-0.88721 1.9437,-2.1991 1.9437,-2.91528 0,-0.71619 2.52667,-5.35604 5.61482,-10.31078 3.08814,-4.95472 5.61481,-9.63407 5.61481,-10.39854 0,-0.76448 0.44031,-1.38996 0.97848,-1.38996 0.53816,0 2.64371,-3.31981 4.67901,-7.37737 5.87356,-11.70947 6.52913,-11.67212 15.7909,0.89941 4.39441,5.96477 9.50022,13.09097 11.34626,15.83599 1.84604,2.74502 4.72438,6.67539 6.39632,8.73415 2.86145,3.5235 3.09461,3.59674 3.97223,1.24774 0.5128,-1.37251 1.95975,-3.83453 3.21545,-5.47115 4.79289,-6.24686 3.1262,-10.51943 -14.99299,-38.43454 -3.66867,-5.6521 -6.47608,-10.73746 -6.23869,-11.30082 0.2374,-0.56335 4.08126,-6.22931 8.54192,-12.59102 4.46066,-6.36171 8.67534,-12.56309 9.36595,-13.78084 0.69062,-1.21774 2.09432,-3.0842 3.11934,-4.14769 1.02503,-1.06348 2.7059,-3.19843 3.73529,-4.74433 2.17103,-3.26041 9.18598,-12.2351 11.69589,-14.96336 0.947,-1.02938 4.67017,-5.80197 8.27371,-10.60576 3.60352,-4.80378 7.32231,-9.18316 8.26397,-9.73196 0.94167,-0.54879 1.7121,-1.49673 1.7121,-2.10652 0,-1.83027 7.3526,-9.2989 8.26057,-8.39093 0.4626,0.46258 2.42107,5.4842 4.35216,11.15912 7.52159,22.10385 10.66343,30.1382 11.95376,30.56831 0.73842,0.24614 3.49733,-2.48783 6.13092,-6.07548 6.33348,-8.62794 6.30092,-8.8706 -5.64167,-42.04753 l -3.74524,-10.4044 17.10689,-17.08212 c 19.15638,-19.12863 32.43183,-31.35845 34.03957,-31.35845 0.58944,0 1.6727,-1.12296 2.40724,-2.49547 0.73455,-1.37251 1.80669,-2.49547 2.38254,-2.49547 0.57586,0 3.18406,-1.95747 5.79603,-4.34993 2.61196,-2.39246 4.93175,-4.16719 5.1551,-3.94384 0.22334,0.22335 1.59428,9.62044 3.04652,20.88244 1.45224,11.26199 3.05612,20.9325 3.56418,21.49 0.50807,0.55751 3.90848,-1.7308 7.55647,-5.08514 l 6.63271,-6.09879 -0.28778,-7.11324 c -0.15828,-3.91228 -1.09075,-12.01137 -2.07215,-17.99799 -2.77483,-16.92666 -2.63534,-17.64799 4.45765,-23.05018 3.37891,-2.57346 6.71583,-4.67901 7.41536,-4.67901 0.69954,0 1.27189,-0.59013 1.27189,-1.31141 0,-0.72127 1.92679,-2.11646 4.28176,-3.10043 2.35496,-0.98397 4.65543,-2.39366 5.11215,-3.13264 0.45671,-0.73898 2.03919,-1.88637 3.5166,-2.54975 1.4774,-0.66337 7.17805,-3.95258 12.66809,-7.30934 8.12409,-4.96729 21.22224,-12.07259 39.1357,-21.22978 3.48006,-1.77898 12.97948,-5.94188 19.50792,-8.54891 15.95404,-6.37098 19.85978,-7.71815 22.37654,-7.71815 2.6916,0 2.69646,0.0494 1.07234,10.91769 -0.89732,6.00474 -2.46967,13.51972 -3.4941,16.69998 -1.02443,3.18025 -1.8626,6.1889 -1.8626,6.68588 0,1.51193 6.1623,-0.53513 11.21759,-3.72641 5.20672,-3.28685 5.56618,-4.11199 10.19455,-23.40159 l 2.91873,-12.16436 5.61481,-1.85004 c 9.01057,-2.96893 40.53676,-7.90281 56.60076,-8.85808 l 14.80156,-0.8802 -0.92823,2.98568 c -0.51052,1.64213 -1.87929,4.38939 -3.04171,6.10503 -2.46818,3.64286 -7.54102,14.4425 -7.54102,16.0542 0,0.6097 -0.83604,1.8024 -1.85787,2.65044 -2.80622,2.32896 -0.89853,4.00196 3.53633,3.10127 13.21302,-2.68348 12.44234,-2.04035 19.52599,-16.29431 3.60687,-7.25788 7.43819,-13.53392 8.51404,-13.94676 2.96218,-1.1367 38.05837,1.72134 50.44859,4.10826 l 10.91769,2.10324 0.005,7.66244 c 0.003,4.21435 0.85894,16.64616 1.90253,27.62624 1.04361,10.98008 2.44386,25.85934 3.11168,33.06502 0.66783,7.20568 2.04657,17.59308 3.06386,23.08313 1.0173,5.49004 1.85156,11.66633 1.85391,13.7251 0.007,6.21347 7.19548,44.28802 12.60295,66.75391 1.23885,5.14691 2.56749,10.85069 2.95254,12.67507 l 0.70011,3.31704 -5.92186,-1.58344 c -3.25702,-0.87089 -10.13295,-3.12082 -15.27987,-4.99984 -12.65961,-4.62173 -18.50841,-6.28917 -19.29636,-5.50122 -0.7863,0.7863 2.86257,13.60985 4.41542,15.51748 0.59675,0.73309 10.02106,4.3006 20.9429,7.92777 21.82028,7.24658 21.66109,7.12173 23.87184,18.72346 0.59789,3.13761 1.42621,6.58182 1.84073,7.6538 0.50998,1.31891 -2.79021,5.70687 -10.20756,13.57208 -6.02867,6.39268 -14.46957,15.34152 -18.75758,19.88634 -4.28801,4.54482 -7.79727,8.68442 -7.79835,9.19911 -10e-4,0.51469 -0.50844,0.93581 -1.12744,0.93581 -0.61901,0 -3.16836,-6.59741 -5.66521,-14.66091 -2.49686,-8.0635 -5.13545,-16.34535 -5.86353,-18.40412 -0.72808,-2.05876 -1.61307,-5.00654 -1.96667,-6.55061 -0.9169,-4.00396 -3.26428,-3.46948 -5.47997,1.24773 -1.04759,2.23033 -3.97197,7.89178 -6.49864,12.58099 -2.52667,4.68922 -4.59394,9.33646 -4.59394,10.32718 0,0.99072 1.47907,6.41854 3.28681,12.0618 8.50784,26.55906 8.08502,24.49949 5.37682,26.1908 -1.33371,0.83293 -2.42495,1.8556 -2.42495,2.27259 0,0.41701 -2.33718,3.35917 -5.19375,6.53814 l -5.19375,5.77995 -2.71766,-5.90248 c -4.14493,-9.00238 -10.50003,-28.05262 -12.9994,-38.96748 -0.55001,-2.4019 -1.84894,-6.61301 -2.88652,-9.35803 -3.08183,-8.15321 -9.65564,-33.27087 -12.89907,-49.2856 -0.90341,-4.46065 -2.2779,-11.19843 -3.05443,-14.97284 -5.39539,-26.22501 -9.42839,-52.91166 -13.09515,-86.65145 -1.11475,-10.2574 -2.50512,-19.54354 -3.08972,-20.63587 -0.90735,-1.69541 -2.69054,-1.856 -12.18532,-1.09738 -11.91103,0.95168 -29.4534,4.67014 -39.60539,8.39518 -3.43128,1.25902 -8.20387,2.99513 -10.60576,3.85801 -12.19745,4.38193 -15.40457,5.74275 -28.37754,12.04092 -14.40582,6.99381 -28.90831,15.41511 -33.46584,19.43292 -1.41675,1.24896 -2.94429,2.27084 -3.39456,2.27084 -0.87677,0 -20.03609,14.06637 -23.64785,17.36175 -1.19245,1.088 -3.15764,2.89825 -4.36708,4.0228 -1.20944,1.12455 -4.72565,4.11057 -7.8138,6.6356 -13.22491,10.81338 -41.14219,39.6548 -57.00849,58.89563 -2.18881,2.65434 -9.03885,11.5564 -15.22228,19.78231 -6.18344,8.22593 -13.14167,17.4829 -15.46273,20.57105 -2.32105,3.08815 -5.27764,7.43963 -6.57018,9.66996 -1.29255,2.23033 -2.7905,4.05514 -3.3288,4.05514 -0.53829,0 -0.97871,0.52178 -0.97871,1.15951 0,1.00157 -1.76277,3.93575 -10.94166,18.21269 -0.87099,1.35475 -3.11692,4.92213 -4.99094,7.92751 -1.87403,3.00537 -4.67065,7.38179 -6.21473,9.72537 -1.54407,2.34358 -2.80741,5.07833 -2.80741,6.07725 0,0.9989 -0.496,1.81619 -1.10221,1.81619 -0.60621,0 -1.4271,0.98259 -1.82419,2.18354 -0.3971,1.20095 -2.68084,5.55243 -5.07497,9.66996 -4.48465,7.71288 -11.03796,20.12539 -18.11577,34.31276 -2.22534,4.46065 -4.64626,9.23325 -5.37985,10.60576 -1.99896,3.74003 -9.67704,20.02588 -15.29463,32.44115 -4.34479,9.60233 -7.39533,16.53434 -8.78537,19.96379 -0.83448,2.05876 -4.15881,9.9195 -7.38741,17.46831 -4.83023,11.29356 -13.80514,35.50681 -21.96814,59.26749 -0.82518,2.40189 -2.46509,6.89374 -3.64427,9.98189 -2.29361,6.00675 -5.21269,15.08374 -10.63343,33.06502 -1.86194,6.1763 -4.1643,13.34655 -5.11636,15.9339 -0.95206,2.58734 -1.72533,5.95623 -1.71838,7.48642 0.007,1.53018 -1.0639,6.15104 -2.37966,10.26857 -1.31575,4.11753 -3.0335,10.01309 -3.8172,13.10123 -3.25434,12.82356 -4.08277,15.97506 -6.23187,23.707 -2.10243,7.56391 -3.67843,14.41641 -9.90047,43.04691 -4.13734,19.0378 -10.76622,53.9012 -14.94631,78.6074 -1.3933,8.2351 -3.46797,20.0262 -4.61036,26.2025 -1.1424,6.1763 -2.548,15.8394 -3.12355,21.4736 -0.57555,5.6343 -1.58431,12.372 -2.24171,14.9729 -0.65738,2.6008 -1.56168,7.3958 -2.00955,10.6555 l -0.81432,5.9268 h -13.81191 -13.8119 l 0.80316,-4.679 c 0.44174,-2.5735 1.3478,-10.1915 2.01348,-16.929 0.66567,-6.7375 1.5319,-12.7703 1.92496,-13.4063 0.39305,-0.636 1.47414,-6.9146 2.40242,-13.9525 1.65598,-12.5552 8.32238,-50.6472 10.04591,-57.4028 0.64125,-2.5134 0.41298,-3.4312 -0.85337,-3.4312 -0.95084,0 -3.42591,1.544 -5.50018,3.4312 -2.07424,1.8872 -6.8316,5.9183 -10.57189,8.9579 -11.57947,9.4103 -17.40629,15.4745 -17.40629,18.1155 0,1.3941 -1.10327,7.8746 -2.45171,14.4011 -2.95245,14.2899 -7.23086,37.4235 -8.19437,44.3074 -0.38421,2.7451 -1.29774,8.5002 -2.03008,12.7893 l -1.33151,7.7984 H 79.568404 39.012789 Z M 156.44247,1074.6132 c 7.92987,-6.0048 14.91984,-11.2705 15.53326,-11.7016 0.61342,-0.4311 1.55965,-2.9578 2.10276,-5.6148 0.54309,-2.657 2.79035,-12.6917 4.99393,-22.2993 2.20356,-9.6075 4.43793,-19.4335 4.96528,-21.8354 0.52733,-2.4019 3.32558,-13.52962 6.21833,-24.72832 2.89275,-11.19871 4.91682,-20.704 4.49794,-21.12289 -0.41889,-0.41888 -2.29878,0.35938 -4.17755,1.7295 -1.87875,1.3701 -4.25815,2.85023 -5.28753,3.28918 -1.02938,0.43894 -6.29014,4.05065 -11.69058,8.02603 -7.90378,5.81812 -10.13612,8.20142 -11.44495,12.21889 -2.78525,8.54941 -16.04961,63.98721 -19.25586,80.47901 -0.73379,3.7744 -1.66808,8.1259 -2.07618,9.67 -0.4081,1.544 -0.30433,2.8074 0.2306,2.8074 0.53493,0 7.46068,-4.913 15.39055,-10.9177 z m 25.72708,-117.50572 c 1.37251,-0.63151 6.41193,-3.88346 11.19872,-7.22655 6.88915,-4.81136 8.92809,-6.97712 9.78192,-10.39033 0.59326,-2.37159 2.07253,-7.40015 3.28725,-11.17455 1.21473,-3.7744 3.51169,-11.07366 5.10436,-16.22058 1.59268,-5.14691 6.09777,-18.62247 10.01132,-29.94568 9.40439,-27.21007 9.87842,-28.69794 9.14326,-28.69794 -0.96638,0 -14.45918,6.80359 -23.32008,11.75888 -6.09356,3.40772 -8.25445,5.38265 -9.30601,8.50515 -0.75326,2.23676 -3.68173,10.52387 -6.50773,18.41581 -10.29821,28.75897 -22.8286,70.37071 -21.56961,71.62971 0.33004,0.33003 2.6433,-0.77373 5.14059,-2.45281 2.49729,-1.67908 5.6635,-3.56958 7.03601,-4.20111 z m 41.79917,-116.46256 c 5.14692,-2.39579 10.52944,-4.71411 11.96117,-5.1518 2.52081,-0.77066 4.4396,-4.34286 10.62751,-19.7853 2.48311,-6.19682 6.42081,-15.12709 8.80874,-19.97724 5.05396,-10.2651 20.98989,-47.52214 20.52535,-47.9867 -0.32555,-0.32554 -5.26319,1.18617 -10.97256,3.35937 -5.70936,2.17318 -12.21711,4.50323 -14.46168,5.17786 -3.53899,1.06369 -10.26795,8.81182 -10.26795,11.82312 0,0.67162 -4.54661,11.10354 -11.91049,27.32787 -10.42133,22.96061 -19.28293,45.63507 -19.28293,49.33983 0,2.76293 0.41954,2.6473 14.97284,-4.12701 z m 41.41232,-104.97886 c 4.5905,-0.96045 11.12695,-2.66985 14.52546,-3.79866 l 6.17911,-2.05236 15.41974,-27.01648 c 8.48086,-14.85906 16.82346,-29.32368 18.53909,-32.14362 1.71564,-2.81993 4.73163,-7.78811 6.70221,-11.04041 1.97059,-3.2523 3.246,-6.25014 2.83427,-6.66186 -0.86171,-0.86172 -18.02263,1.71178 -24.50932,3.67547 -4.67135,1.41413 -6.12042,2.80888 -10.03968,9.66322 -1.37339,2.40189 -3.89711,6.613 -5.60829,9.35802 -1.71117,2.74502 -3.65329,6.11391 -4.31581,7.48642 -0.66252,1.37251 -2.58653,4.7414 -4.27557,7.48642 -10.48386,17.03828 -26.25433,46.79013 -24.80187,46.79013 0.55236,0 4.76016,-0.78583 9.35066,-1.74629 z M 328.15473,638.223 c 4.80379,-0.45032 9.99822,-1.11799 11.54318,-1.48371 2.60648,-0.61701 25.26505,-28.91405 25.26505,-31.55214 0,-0.59107 0.53546,-1.26182 1.18988,-1.49058 0.65444,-0.22875 2.76,-2.45093 4.67901,-4.9382 1.91904,-2.48725 8.17848,-10.24408 13.9099,-17.23739 5.73141,-6.99331 10.13773,-12.99816 9.79181,-13.34408 -0.34592,-0.34592 -6.96097,-0.10772 -14.70011,0.52934 -15.61697,1.28553 -13.24247,-0.0366 -25.21591,14.04003 -15.85102,18.63531 -41.27815,54.33084 -40.08123,56.26751 0.39996,0.64714 1.66254,0.91817 2.80574,0.6023 1.14319,-0.31587 6.0089,-0.94276 10.81268,-1.39308 z m 347.63164,-27.76786 c 1.77048,-3.25971 5.03001,-9.24076 7.24341,-13.29122 4.22892,-7.73879 4.22416,-7.61988 0.80357,-20.08573 -3.88586,-14.1615 -11.94425,-57.04513 -11.95772,-63.63457 -0.004,-2.05876 -0.52958,-4.56845 -1.16746,-5.57707 -1.46644,-2.31872 -4.90518,1.48753 -13.26153,14.6788 l -5.85549,9.24344 2.74632,13.91055 c 7.58736,38.43117 15.49193,70.68255 17.32376,70.68255 0.49836,0 2.35468,-2.66703 4.12514,-5.92675 z m -251.13215,-71.3274 c 8.68824,-8.17703 20.65903,-18.7048 26.60175,-23.39506 l 10.80492,-8.52774 1.98691,-10.60576 c 1.0928,-5.83317 1.98576,-12.73224 1.98436,-15.33127 l -0.003,-4.7255 -7.17449,5.00374 c -19.17938,13.37638 -37.67709,28.93271 -54.45769,45.79822 -16.72019,16.8048 -23.21391,23.87086 -23.21391,25.25995 0,0.9389 4.49558,1.39074 13.83694,1.39074 h 13.83692 z m 234.60335,-41.57577 8.88374,-10.90071 -1.19851,-14.67789 c -0.65919,-8.07285 -1.79401,-22.52729 -2.52182,-32.121 -0.72782,-9.5937 -1.85977,-17.97955 -2.51543,-18.63522 -0.65567,-0.65566 -10.60524,-1.41921 -22.11015,-1.69676 -16.65348,-0.40176 -24.3521,0.0131 -37.76248,2.03496 -15.38626,2.31976 -17.07999,2.83489 -19.56537,5.95066 -4.00933,5.02624 -11.04806,18.93187 -10.0753,19.90463 0.46208,0.46207 6.89915,-0.32976 14.3046,-1.75964 13.05039,-2.51982 39.14633,-5.24338 49.96076,-5.21425 4.94653,0.0133 5.30374,0.24486 5.31576,3.44555 0.0197,5.25723 2.38239,32.30667 3.67824,42.11112 0.63492,4.80378 1.51226,11.99466 1.94965,15.97973 0.43738,3.98506 1.24014,7.07321 1.7839,6.86256 0.54375,-0.21067 4.98635,-5.28835 9.87241,-11.28374 z m -173.03813,-9.37502 c 5.06479,-3.36315 8.16441,-5.31405 16.30649,-10.26332 6.02857,-3.66456 38.50885,-19.57317 42.11111,-20.62573 4.98339,-1.45613 7.29505,-4.21155 12.53999,-14.94724 4.89404,-10.01745 5.82778,-13.11926 3.94927,-13.11926 -1.43097,0 -15.21738,4.82472 -19.79717,6.92826 -2.16248,0.99324 -4.27415,1.8059 -4.69262,1.8059 -2.67126,0 -37.68187,17.13621 -47.05009,23.02903 l -7.01275,4.41119 -0.81969,7.80334 c -0.45083,4.29184 -1.14884,10.18965 -1.55114,13.10623 -0.4023,2.91658 -0.3758,5.30288 0.0589,5.30288 0.43468,0 3.11566,-1.54407 5.95771,-3.43128 z"
       id="path2" />
    <path
       style="fill:#000000;stroke-width:1.24774"
       d="m 215.81363,1189.5808 c 0.47432,-3.1631 1.64414,-13.1294 2.59959,-22.1474 0.95545,-9.018 3.12917,-26.2223 4.8305,-38.2318 1.70133,-12.0094 3.73001,-26.3272 4.50819,-31.8172 0.77817,-5.4901 2.49197,-14.7545 3.80843,-20.5877 1.31647,-5.8332 2.40605,-12.2902 2.42129,-14.349 0.0153,-2.0587 1.13747,-7.9163 2.49383,-13.0168 1.35636,-5.1005 2.4661,-10.5476 2.4661,-12.1046 0,-1.557 0.85103,-6.0868 1.89117,-10.0662 1.04014,-3.9795 2.47397,-10.885 3.1863,-15.3457 0.71233,-4.4607 2.06247,-10.637 3.00031,-13.7251 2.34891,-7.73448 5.54009,-20.633 6.89712,-27.87763 0.6225,-3.32322 1.69329,-6.71877 2.37955,-7.54566 0.68625,-0.82689 1.78987,-4.56492 2.45247,-8.30673 1.35639,-7.65971 7.20873,-29.18647 8.76747,-32.24953 0.56089,-1.10219 1.37456,-3.87363 1.80814,-6.15875 0.43359,-2.28511 1.58846,-5.93474 2.56637,-8.11029 0.97791,-2.17554 2.07221,-5.63997 2.43177,-7.69873 0.53568,-3.06719 5.4447,-17.50823 8.69507,-25.57861 0.41459,-1.02938 1.55634,-4.11753 2.53723,-6.86255 0.98088,-2.74502 2.48942,-6.95613 3.3523,-9.35802 0.86288,-2.40189 2.56369,-7.17449 3.77959,-10.60576 2.4498,-6.91336 8.05184,-21.50622 10.51541,-27.39178 0.87521,-2.0909 2.84422,-6.88979 4.37559,-10.66419 1.53137,-3.7744 3.79609,-9.10848 5.03271,-11.8535 1.23662,-2.74502 3.73141,-8.35983 5.54396,-12.47736 5.14964,-11.69826 7.15998,-16.0694 8.32081,-18.09219 0.59074,-1.02938 1.69146,-3.2753 2.44604,-4.99094 0.75458,-1.71564 1.81362,-3.96157 2.35342,-4.99095 0.5398,-1.02938 3.89488,-7.76716 7.45574,-14.97284 3.56085,-7.20568 6.98155,-13.94345 7.60153,-14.97284 0.61999,-1.02938 2.17485,-3.83679 3.45522,-6.23868 1.28038,-2.40189 3.67473,-6.89375 5.32077,-9.98189 1.64603,-3.08815 3.27353,-5.89556 3.61666,-6.23869 0.82173,-0.82173 3.73985,-5.93004 6.05855,-10.60576 1.02093,-2.05876 2.18623,-4.02395 2.58954,-4.36708 0.94593,-0.80477 6.85933,-10.03698 7.99199,-12.47736 1.1153,-2.40299 5.79497,-9.55337 15.1772,-23.19026 4.11753,-5.98476 8.04791,-11.77137 8.73416,-12.85915 1.6676,-2.64333 31.48356,-39.40839 36.89762,-45.49723 14.41715,-16.21402 53.473,-53.05739 61.36164,-57.88556 1.8872,-1.15505 3.43128,-2.54051 3.43128,-3.0788 0,-0.53829 0.81432,-0.97871 1.8096,-0.97871 0.99528,0 2.25862,-0.70186 2.80741,-1.55968 0.87454,-1.367 10.7132,-8.15089 22.20932,-15.31364 2.05877,-1.28273 8.79655,-4.80717 14.97284,-7.83211 6.1763,-3.02492 12.63334,-6.23082 14.34897,-7.1242 7.15887,-3.72781 36.64053,-13.03818 41.39746,-13.07339 1.63811,-0.0121 2.24696,1.54582 2.79775,7.15898 2.04529,20.84391 7.96801,58.32637 13.25892,83.91029 1.34826,6.51942 2.44819,12.88456 2.44431,14.14474 -0.004,1.26018 1.07965,6.31351 2.40787,11.22963 1.32821,4.91611 3.60639,13.71098 5.06262,19.54415 2.49211,9.98244 5.73741,22.10179 9.3553,34.93662 0.87048,3.08815 5.10132,17.21345 9.40185,31.38956 l 7.81917,25.77475 -4.86152,6.41763 c -9.12012,12.03941 -10.24964,13.20949 -11.49337,11.90613 -1.61582,-1.69328 -14.95431,-42.37342 -24.46928,-74.62713 -1.24226,-4.21096 -2.7406,-7.04866 -3.57497,-6.77054 -1.42812,0.47604 -3.8559,4.47708 -10.09675,16.63973 -3.79296,7.392 -3.80806,7.54082 -1.54591,15.23789 0.94549,3.21711 2.94099,10.06038 4.43442,15.20729 5.0564,17.42619 7.93439,26.78433 12.75084,41.46086 2.64146,8.04898 4.80265,16.06661 4.80265,17.81695 0,2.82972 -1.70593,5.5087 -12.43449,19.52694 -1.3961,1.82418 -2.53835,3.92974 -2.53835,4.67902 0,0.74927 -0.42893,1.36232 -0.95318,1.36232 -0.52425,0 -2.34125,2.24593 -4.03776,4.99095 -1.69651,2.74502 -3.51352,4.99095 -4.03777,4.99095 -0.52425,0 -0.95318,0.7552 -0.95318,1.67822 0,0.92302 -1.12296,2.69448 -2.49547,3.93659 -1.37251,1.24211 -2.50797,2.8732 -2.52323,3.62466 -0.0153,0.75145 -1.08861,2.74675 -2.38523,4.43397 l -2.35749,3.06769 -2.75344,-6.18703 c -5.49049,-12.33726 -6.10351,-13.80191 -9.11726,-21.78373 -5.08562,-13.469 -5.10686,-14.26184 -0.52521,-19.59633 7.03768,-8.1941 8.32045,-9.81382 12.14911,-15.3403 1.66399,-2.40189 3.33481,-4.64782 3.71293,-4.99094 0.37812,-0.34313 2.28574,-2.98042 4.23914,-5.86065 3.51615,-5.18444 3.53683,-5.32469 2.06804,-14.03262 -0.81598,-4.8377 -2.01038,-9.12139 -2.65421,-9.51931 -1.31103,-0.81025 -5.60354,3.84855 -6.8019,7.38236 -0.863,2.54486 -5.10861,8.82058 -13.63759,20.15861 -3.09739,4.11753 -5.97437,8.46901 -6.39327,9.66996 -1.21777,3.49118 -2.45164,2.56614 -4.16072,-3.11934 -0.87673,-2.91659 -2.87105,-9.23325 -4.43183,-14.03704 -2.86493,-8.81773 -6.30505,-20.98239 -9.95304,-35.19502 l -1.98787,-7.74481 8.34303,-10.97124 c 4.58865,-6.03418 8.68256,-11.25197 9.09757,-11.5951 3.14738,-2.60226 11.35642,-16.92688 11.35642,-19.81677 0,-4.26472 -2.34997,-11.37665 -3.75913,-11.37665 -0.97002,0 -7.71681,8.02794 -13.08532,15.57012 -1.37251,1.92823 -3.47806,4.39188 -4.67901,5.47479 -1.20095,1.08293 -2.18354,2.33507 -2.18354,2.78256 0,0.44749 -1.90655,2.89507 -4.23679,5.43909 l -4.23679,4.6255 -1.22897,-4.15672 c -0.67595,-2.28621 -2.47233,-9.77155 -3.99197,-16.6341 -1.51963,-6.86255 -3.77595,-16.40774 -5.01402,-21.21153 -4.47377,-17.35845 -7.41206,-31.34452 -8.19168,-38.99177 -0.52086,-5.10924 -1.34809,-7.79835 -2.39891,-7.79835 -2.35668,0 -10.43056,9.38289 -11.401,13.24945 -1.1178,4.45368 0.22483,26.37507 2.72295,44.45829 l 2.02533,14.66082 -5.41414,6.55071 c -2.97778,3.60287 -6.02343,7.11217 -6.76813,7.79843 -1.70446,1.57068 -15.37721,19.94926 -18.5651,24.95473 -1.31118,2.05876 -2.98285,4.37626 -3.7148,5.14999 -0.73196,0.77374 -2.13841,2.57326 -3.12544,3.99894 -1.96428,2.83721 -1.73398,3.03222 -7.85736,-6.65346 -0.86772,-1.37251 -1.90239,-2.77621 -2.29928,-3.11934 -0.39688,-0.34313 -1.55693,-2.30831 -2.57786,-4.36708 -1.02095,-2.05876 -2.44802,-4.86617 -3.1713,-6.23868 -3.43109,-6.51102 -6.63046,-14.65502 -6.63046,-16.87782 0,-3.94941 -4.05598,-2.90188 -7.3195,1.89041 -2.0189,2.96464 -2.75206,5.42768 -2.31877,7.78983 1.02597,5.59323 13.4997,33.86323 16.81432,38.1073 0.65781,0.84228 1.8171,3.37726 2.57617,5.63327 1.51265,4.49563 0.95889,6.49087 -4.05609,14.61421 -2.85151,4.61895 -12.5165,23.68511 -17.55187,34.62469 -1.18453,2.57346 -2.51084,4.64703 -2.94733,4.60796 -1.0376,-0.0929 -9.3398,-10.87647 -16.26487,-21.12611 -9.18588,-13.59582 -9.62453,-14.28944 -10.46441,-16.54687 -1.21118,-3.25546 -4.3349,-2.6402 -6.33496,1.24774 -5.3577,10.41492 -5.67278,12.14753 -3.20964,17.64913 2.44105,5.45228 6.70686,12.32013 19.01115,30.60756 7.1365,10.60668 7.42042,11.31903 5.96785,14.97284 -0.83881,2.10997 -3.24865,8.88965 -5.35521,15.06594 -2.10655,6.1763 -4.87507,13.60981 -6.15225,16.51891 -1.27719,2.90911 -2.32216,6.15999 -2.32216,7.2242 0,1.06419 -1.12296,4.13609 -2.49548,6.82644 -1.37251,2.69034 -2.49547,5.60489 -2.49547,6.4768 0,0.87189 -1.07039,4.40351 -2.37865,7.84805 -3.70732,9.76107 -13.84192,41.14015 -13.84192,42.85778 0,0.84763 -0.83017,3.52802 -1.84482,5.95642 l -1.84483,4.41528 -4.08192,-3.82571 c -2.24506,-2.10414 -4.49118,-3.82832 -4.99137,-3.83149 -0.50018,-0.003 -7.40107,-6.53364 -15.33531,-14.51216 -7.93423,-7.97851 -14.82211,-14.11015 -15.30639,-13.62587 -0.48429,0.48428 -1.07981,5.26886 -1.32338,10.63236 -0.52442,11.54787 -1.33711,10.29276 21.17781,32.70657 l 14.64859,14.5828 -1.14278,7.2526 c -0.62853,3.98891 -1.99455,10.32272 -3.03562,14.07511 -1.04104,3.7524 -1.89282,8.05852 -1.89282,9.56918 0,1.51066 -0.86638,6.12844 -1.92527,10.26174 -1.83418,7.15946 -2.77035,12.4849 -7.86691,44.75117 -1.217,7.7048 -2.54693,14.343 -2.9554,14.7515 -0.58455,0.5845 -20.73468,-12.0474 -26.55613,-16.6478 -0.68625,-0.5424 -3.7744,-2.7223 -6.86255,-4.8443 -3.08815,-2.1221 -6.68443,-5.0467 -7.99174,-6.499 -3.3236,-3.6925 -5.29093,-3.2932 -6.20126,1.2584 -1.93608,9.6804 -1.07975,12.9199 5.14691,19.4708 7.46591,7.8548 26.03807,22.7963 28.33549,22.7963 0.37091,0 1.69107,1.0167 2.93369,2.2593 1.24261,1.2426 3.57222,3.1789 5.17692,4.3029 2.89021,2.0244 2.90363,2.1468 1.42928,13.0255 -0.81858,6.04 -2.00289,18.2811 -2.6318,27.2024 -0.62891,8.9214 -1.9965,24.6428 -3.03911,34.9367 -1.04261,10.2938 -1.90718,22.2253 -1.92125,26.5144 -0.0238,7.25 -0.22299,7.7978 -2.83301,7.7906 -1.54408,0 -4.3982,-0.8373 -6.34249,-1.8514 -1.94429,-1.0141 -5.87466,-2.4656 -8.73415,-3.2255 -2.8595,-0.76 -12.02252,-4.6994 -20.36226,-8.7543 -8.33975,-4.0549 -15.56113,-7.3726 -16.04751,-7.3726 -1.12806,0 0.20744,7.6334 2.67411,15.2846 1.57352,4.8808 3.0717,6.6972 8.49022,10.2938 3.61875,2.402 7.08291,4.3664 7.69814,4.3653 0.61522,0 6.45266,2.4754 12.97208,5.5033 6.51943,3.0279 13.69948,6.1938 15.95567,7.0353 9.46164,3.5293 3.68212,4.3034 -34.63008,4.6383 l -37.80729,0.3305 0.83212,-5.3215 c 0.45767,-2.9267 1.16955,-12.3487 1.58195,-20.9376 l 0.74983,-15.6162 -7.34323,-9.3385 c -4.03878,-5.1362 -8.91529,-11.4441 -10.8367,-14.0176 -1.9214,-2.5734 -3.97846,-4.679 -4.57124,-4.679 -0.59278,0 -1.44032,4.3515 -1.88341,9.67 -0.4431,5.3185 -1.89471,17.4353 -3.2258,26.9263 -1.33109,9.491 -2.42017,20.861 -2.42017,25.2667 v 8.0103 h -14.49064 -14.49065 z m 62.39743,-69.4252 c 0.46361,-4.9754 1.34884,-12.415 1.96718,-16.5326 2.0378,-13.5697 7.36228,-48.4526 9.19255,-60.2243 l 1.79776,-11.5626 -4.88867,-7.7773 c -2.68878,-4.2775 -5.97659,-9.7801 -7.30626,-12.2279 -2.40958,-4.4358 -5.9727,-8.1989 -6.88248,-7.2688 -0.26346,0.2694 -1.35829,5.2623 -2.43296,11.0955 -1.07466,5.8332 -2.81626,14.8169 -3.87021,19.9638 -3.90306,19.0604 -4.47791,22.2496 -7.51951,41.7164 -1.70848,10.9345 -3.10632,21.3649 -3.10632,23.1788 0,4.6216 17.88525,28.583 21.39682,28.6659 0.44504,0.011 1.18849,-4.0516 1.6521,-9.0269 z m 41.83338,-17.5931 c 0,-5.4032 -0.68641,-7.6027 -3.60189,-11.5415 -4.67722,-6.319 -18.59102,-19.8975 -19.47897,-19.0095 -0.37777,0.3777 -1.02466,4.3043 -1.43753,8.7256 -0.71098,7.6137 -0.56091,8.2431 2.83777,11.9024 5.60033,6.0298 18.39207,16.575 20.12095,16.5873 1.05477,0.01 1.55967,-2.1499 1.55967,-6.6643 z m -23.25313,-96.5748 c 0.34211,-1.201 1.23636,-5.5525 1.98723,-9.67 0.75087,-4.11754 2.46053,-11.97828 3.79925,-17.46832 5.40543,-22.16755 8.76233,-35.60612 12.18652,-48.786 l 3.59812,-13.84938 -6.02898,-11.10535 c -3.31595,-6.10795 -6.37787,-12.11091 -6.80429,-13.33992 -1.02887,-2.96543 -3.37598,-2.04988 -4.3905,1.71265 -0.44749,1.65956 -1.95472,6.94776 -3.3494,11.75154 -1.39469,4.80379 -3.76549,13.22601 -5.26845,18.71605 -1.50296,5.49004 -3.78573,13.31944 -5.07282,17.39865 -1.2871,4.07923 -2.34006,8.57108 -2.33991,9.9819 1.4e-4,1.41082 -1.09101,5.93402 -2.42478,10.05155 -1.33376,4.11753 -3.05779,10.38575 -3.83118,13.92938 -1.57318,7.20828 -0.59239,10.10476 6.7555,19.95046 2.127,2.85005 4.82375,6.92079 5.99278,9.04609 2.38242,4.3313 4.26243,4.94 5.19091,1.6807 z m 46.96013,-35.18175 c 0,-4.8517 -0.98112,-7.85419 -4.58688,-14.03704 -4.80451,-8.23839 -11.49904,-17.22323 -12.83288,-17.22323 -1.44272,0 -3.98881,14.37716 -3.14294,17.74741 0.46006,1.83302 2.18673,4.21748 3.83704,5.29881 1.65031,1.08132 3.00056,2.74875 3.00056,3.7054 0,2.00482 9.83498,10.61956 12.16543,10.65606 1.04082,0.0163 1.55967,-2.02875 1.55967,-6.14741 z m -17.002,-81.48167 c 1.05624,-2.91658 4.99872,-14.56733 8.76105,-25.89054 3.76234,-11.32321 8.04887,-23.6758 9.52563,-27.4502 1.47676,-3.7744 3.426,-9.10848 4.33166,-11.8535 0.90564,-2.74502 2.53913,-7.07847 3.62996,-9.62988 1.09084,-2.55142 1.98333,-6.09328 1.98333,-7.87081 0,-3.26953 -9.92814,-25.54622 -11.38528,-25.54622 -0.43414,0 -1.46878,1.82481 -2.29921,4.05514 -0.83044,2.23033 -2.25098,5.45885 -3.15675,7.17449 -2.03439,3.85336 -13.10444,31.74002 -13.10444,33.01151 0,0.50826 -0.81796,2.69341 -1.81769,4.85588 -0.99973,2.16248 -3.48642,8.98512 -5.52598,15.16141 -2.03955,6.1763 -4.59048,13.31716 -5.66872,15.86857 -2.57527,6.09378 -2.48083,11.51889 0.27309,15.6873 2.9777,4.50714 4.72678,7.44848 7.76065,13.05072 1.39364,2.57345 3.03753,4.67901 3.65308,4.67901 0.61555,0 1.98338,-2.3863 3.03962,-5.30288 z m 53.13009,-47.24572 c 0.0384,-3.93444 -0.73419,-6.7634 -2.4392,-8.93096 -1.37251,-1.74486 -2.49547,-3.46773 -2.49547,-3.82857 0,-0.36086 -1.75996,-3.48728 -3.91102,-6.94761 -3.6458,-5.86485 -6.07088,-7.18386 -6.07088,-3.30197 0,0.91007 -0.92796,4.52798 -2.06216,8.03977 -1.91771,5.93787 -1.91771,6.54471 0,8.66376 1.1342,1.25327 2.06216,2.69302 2.06216,3.19946 0,1.03686 5.40291,8.60976 9.28623,13.01588 l 2.55904,2.90354 1.50751,-3.52741 c 0.82912,-1.94008 1.53283,-6.11872 1.56379,-9.28589 z m -9.52244,-67.54605 c 3.143,-7.03411 9.20331,-19.52708 13.46735,-27.76214 4.26405,-8.23506 10.5572,-20.48818 13.9848,-27.22916 l 6.23199,-12.25631 -1.92776,-6.45974 c -1.06026,-3.55285 -2.62658,-9.12676 -3.48071,-12.38648 -2.26488,-8.64372 -2.98588,-8.24087 -10.60791,5.92675 -2.58438,4.80379 -5.32129,9.57638 -6.08203,10.60576 -4.33081,5.86022 -25.22597,46.6183 -28.1454,54.90041 -1.43984,4.08467 -1.19108,5.11347 3.84674,15.90865 2.96238,6.34786 5.7489,11.54156 6.19227,11.54156 0.44337,0 3.37766,-5.75518 6.52066,-12.7893 z m 57.04422,-102.79706 c 6.49109,-9.35834 12.36346,-17.90801 13.04972,-18.99924 0.68625,-1.09123 1.88446,-2.55848 2.66267,-3.26055 0.77821,-0.70206 3.02414,-3.5369 4.99095,-6.29963 1.9668,-2.76273 7.34745,-9.83817 11.95699,-15.72319 l 8.38099,-10.70007 -1.30551,-7.98379 c -0.71802,-4.39109 -1.56713,-9.80861 -1.8869,-12.03894 -0.77843,-5.42936 -2.77618,-5.05578 -7.66144,1.43268 -2.24057,2.97587 -5.61712,7.02925 -7.50345,9.00751 -3.59046,3.76545 -17.8205,21.25802 -22.11167,27.18123 -1.37251,1.89451 -3.33769,4.50748 -4.36708,5.8066 -1.02938,1.29912 -3.2753,4.36466 -4.99094,6.81232 -1.71564,2.44766 -4.94416,6.92029 -7.17449,9.93917 -4.77991,6.46992 -4.83301,7.18976 -1.4757,20.0076 2.74866,10.49402 3.28294,11.83347 4.7202,11.83347 0.50253,0 6.22458,-7.65683 12.71566,-17.01517 z m 166.31255,-21.35273 c 2.38041,-4.63223 5.22254,-10.10667 6.31585,-12.16544 2.62984,-4.95214 2.51772,-8.92287 -0.59474,-21.06143 -4.85984,-18.9534 -5.9756,-23.84935 -7.99606,-35.08671 -2.63316,-14.6452 -4.23007,-20.58766 -5.53248,-20.58766 -0.58162,0 -1.98343,1.82482 -3.11515,4.05515 -1.13173,2.23032 -3.96584,6.58181 -6.29802,9.66995 -5.12033,6.78006 -5.49723,11.70242 -2.03709,26.60526 1.3029,5.61164 3.57025,16.09853 5.03852,23.30421 3.53675,17.35678 7.90193,33.68889 9.00424,33.68889 0.48781,0 2.83453,-3.79 5.21493,-8.42222 z m -99.58115,-60.79881 c 6.65984,-6.16071 14.29076,-12.87827 16.95759,-14.92792 2.66684,-2.04966 4.84879,-4.16797 4.84879,-4.70737 0,-0.53939 0.81433,-0.98072 1.80961,-0.98072 0.99528,0 2.25861,-0.77032 2.80741,-1.71181 2.2703,-3.89491 25.23971,-18.66392 36.68544,-23.58823 l 4.49422,-1.93355 1.58415,10.80939 c 0.87128,5.94516 1.79722,11.17779 2.05763,11.62805 0.91784,1.58693 5.17444,-0.43914 6.52958,-3.10795 1.59532,-3.14181 6.0366,-10.2465 9.358,-14.96994 2.17569,-3.0941 2.21724,-4.20501 0.68896,-18.41916 l -1.62636,-15.12648 -5.32181,0.72944 c -7.02997,0.96356 -31.32955,12.89456 -45.09234,22.14016 -2.95098,1.98242 -5.59884,3.6044 -5.88412,3.6044 -1.82793,0 -27.95477,20.95543 -36.4891,29.26662 l -10.30654,10.03709 1.46575,11.57711 c 0.80616,6.36741 1.88393,11.42074 2.39504,11.22963 0.51111,-0.19112 6.37826,-5.38806 13.0381,-11.54876 z"
       id="path3" />
    <path
       style="fill:#000000;stroke-width:1.24774"
       d="m 629.15532,1022.0615 c -1.19221,-2.0183 -2.16767,-4.2909 -2.16767,-5.0503 0,-0.7594 -1.0505,-3.761 -2.33445,-6.6701 -2.06007,-4.6676 -5.79097,-13.41536 -10.77032,-25.25303 -0.86599,-2.05877 -3.32502,-8.0947 -5.46451,-13.41317 l -7.77995,-19.33992 c -2.13949,-5.31848 -4.75498,-11.62645 -5.81221,-14.01772 -1.05723,-2.39126 -2.36244,-6.04089 -2.90047,-8.11029 -0.53803,-2.06938 -2.13365,-7.0782 -3.54582,-11.1307 -1.41216,-4.05248 -2.56757,-8.30843 -2.56757,-9.45764 0,-2.87209 24.75587,-51.14181 26.24093,-51.16534 0.36429,-0.006 3.37538,8.27136 6.69131,18.39362 10.08515,30.78605 10.43601,31.3923 13.67774,23.63376 0.98842,-2.36562 2.41589,-4.68356 3.17217,-5.15096 1.92327,-1.18864 1.71277,-5.67791 -0.56675,-12.08724 -2.25147,-6.33044 -4.68066,-16.46338 -8.27752,-34.52829 l -2.55813,-12.84795 3.89325,-6.26294 c 2.14129,-3.44462 3.89325,-6.7871 3.89325,-7.42777 0,-0.64065 0.47755,-1.16482 1.06123,-1.16482 1.1086,0 8.92066,-11.92269 8.92066,-13.61463 0,-0.53429 1.12297,-1.98771 2.49548,-3.22981 1.37251,-1.24211 2.49547,-2.92656 2.49547,-3.74321 0,-0.81666 1.12296,-2.50111 2.49547,-3.74321 1.37251,-1.24211 2.49548,-2.88879 2.49548,-3.6593 0,-1.33873 4.96644,-6.30975 5.47109,-5.47615 1.968,3.25086 9.50175,22.22926 9.50175,23.93605 0,2.55097 6.68234,19.51215 7.68737,19.51215 0.61881,0 1.47959,-0.98259 1.91285,-2.18354 0.43326,-1.20094 1.81934,-3.67392 3.08018,-5.49549 2.94015,-4.24772 2.89892,-10.09812 -0.15051,-21.35715 -4.46784,-16.49607 -7.48307,-28.94606 -7.81097,-32.25179 -0.33768,-3.40418 2.42533,-9.83302 4.22608,-9.83302 0.57029,0 1.03689,-0.55807 1.03689,-1.24017 0,-2.13867 36.22485,-48.54262 38.28676,-49.04526 0.55932,-0.13634 1.94666,3.40173 3.08298,7.86239 1.13633,4.46066 2.63789,9.79473 3.3368,11.8535 4.29481,12.65112 6.47434,20.30511 6.46329,22.69755 -0.0175,3.7912 2.52472,4.99752 4.50118,2.13588 0.90187,-1.3058 2.08443,-2.93565 2.62792,-3.62191 3.41128,-4.3074 5.42753,-8.56659 4.8132,-10.16752 -0.39164,-1.0206 -2.13594,-9.25708 -3.87621,-18.30331 -1.74027,-9.04623 -3.78299,-19.666 -4.53936,-23.59949 -1.37402,-7.14543 -1.37149,-7.15606 2.84557,-11.91561 2.32147,-2.62008 7.30898,-8.36474 11.08338,-12.76588 6.59866,-7.69437 19.61983,-21.77329 33.33706,-36.04513 4.50869,-4.69098 6.7048,-6.23101 7.14188,-5.00826 0.66634,1.86415 2.2035,13.31672 4.63987,34.56939 1.72942,15.08588 2.64686,15.57752 9.80123,5.25227 l 4.75506,-6.86255 -1.0597,-14.97284 c -0.58283,-8.23506 -1.09566,-19.94144 -1.13961,-26.01417 l -0.0799,-11.04132 5.92675,-5.6238 c 3.25971,-3.09308 10.36295,-9.63485 15.78498,-14.53727 5.42202,-4.90242 11.40496,-10.31718 13.2954,-12.03282 1.89044,-1.71564 9.789,-8.45342 17.55234,-14.97284 7.76334,-6.51943 15.42186,-13.11683 17.01893,-14.66091 1.59706,-1.54407 3.29934,-2.8226 3.78283,-2.84117 0.4835,-0.0186 3.68651,-2.54005 7.11778,-5.6033 3.43128,-3.06325 6.61969,-5.57472 7.08536,-5.58106 0.46568,-0.006 1.72008,-0.88491 2.78757,-1.95238 1.06749,-1.06749 6.86278,-5.55453 12.87843,-9.9712 6.01563,-4.41667 11.75915,-8.73698 12.76336,-9.60068 1.0042,-0.8637 2.82833,-2.13185 4.0536,-2.81811 1.22528,-0.68625 6.46193,-4.19551 11.637,-7.79835 5.17506,-3.60284 9.66761,-6.55062 9.98342,-6.55062 0.31583,0 0.57422,10.38741 0.57422,23.08313 0,25.08793 0.22814,25.78764 6.50891,19.96378 1.85024,-1.71563 3.88549,-3.11934 4.52277,-3.11934 4.37172,0 7.56979,-17.91797 7.68318,-43.04691 0.0217,-4.80379 0.46419,-9.40226 0.98337,-10.21881 1.14186,-1.79588 9.93989,-7.87337 11.39782,-7.87337 0.57175,0 1.76546,-0.87467 2.65267,-1.9437 0.88722,-1.06902 3.34226,-2.7523 5.45566,-3.7406 2.1134,-0.9883 5.52698,-2.89284 7.58575,-4.23233 2.05876,-1.33947 7.95432,-4.8096 13.10128,-7.71138 5.1469,-2.9018 9.6387,-5.60132 9.9818,-5.99893 1.2774,-1.48023 13.9156,-7.7919 14.4774,-7.23015 0.3211,0.32107 0.01,9.22007 -0.7013,19.77556 -1.8009,26.89476 -1.5838,27.55015 6.5903,19.8888 6.0801,-5.69871 5.5189,-3.82244 9.6739,-32.34424 1.336,-9.17094 2.7184,-17.14263 3.0721,-17.71488 0.8529,-1.38011 42.4809,-21.76321 60.4679,-29.60806 3.0881,-1.34686 8.4222,-3.67552 11.8535,-5.17478 3.4313,-1.49927 9.8883,-4.12349 14.349,-5.83161 4.4606,-1.70811 14.458,-5.60401 22.2163,-8.65754 7.7583,-3.05354 14.5832,-5.55188 15.1663,-5.55188 1.3068,0 -1.7713,12.14624 -4.3133,17.0202 -1.0233,1.9621 -1.864,4.85315 -1.8682,6.42457 0,1.57141 -1.1307,5.0583 -2.5032,7.74864 -1.3725,2.69035 -2.4955,5.92457 -2.4955,7.18717 0,1.2626 -0.6644,2.96005 -1.4765,3.77212 -2.5392,2.53925 0.1425,3.36968 4.3332,1.34185 2.2032,-1.06612 6.6401,-3.12381 9.8597,-4.57266 4.5633,-2.05349 6.1269,-3.53967 7.0923,-6.74104 2.475,-8.20719 9.7913,-27.97191 12.7354,-34.40421 l 3.0164,-6.59044 15.5967,-4.77015 c 23.5109,-7.19067 48.5703,-14.24606 56.0206,-15.77244 l 4.2396,-0.86857 -2.6799,3.76353 c -1.4739,2.06994 -2.6799,4.68181 -2.6799,5.80416 0,1.12235 -1.1229,4.24182 -2.4954,6.93216 -1.3725,2.69035 -2.4955,5.82005 -2.4955,6.9549 0,1.13485 -1.1936,4.38573 -2.6523,7.22419 -4.4151,8.59075 -4.8341,9.46918 -4.8341,10.13485 0,1.37022 7.1221,0.39598 12.2117,-1.67046 5.8658,-2.38157 7.4711,-4.56421 13.9006,-18.90027 2.3083,-5.14691 5.7787,-12.7993 7.712,-17.0053 l 3.5152,-7.64728 10.964,-2.52439 c 16.7767,-3.86275 36.4407,-7.58253 43.7263,-8.27159 l 6.56,-0.62042 -0.8115,3.37358 c -0.4462,1.85548 -2.1349,5.89579 -3.7525,8.97848 -1.6176,3.08269 -2.941,6.29216 -2.941,7.13215 0,1.42937 -2.6628,8.23025 -5.1433,13.13657 -0.6025,1.19163 -1.0954,2.73571 -1.0954,3.43127 0,1.68931 5.448,1.60173 11.406,-0.18334 4.2892,-1.28506 5.3266,-2.44353 9.2185,-10.29383 2.4119,-4.8652 4.8437,-9.68804 5.404,-10.71742 4.0454,-7.43296 5.2891,-9.87393 7.001,-13.73998 l 1.9403,-4.38195 20.883,-2.75096 c 11.4856,-1.51303 25.0941,-3.063 30.241,-3.44437 5.1469,-0.38138 12.3243,-1.02857 15.9497,-1.4382 l 6.5916,-0.74479 -4.0923,6.69951 c -2.2507,3.68473 -4.3747,6.98025 -4.72,7.32338 -0.7712,0.76641 -3.6185,5.69944 -5.9273,10.26902 -0.9466,1.87356 -2.2114,3.70953 -2.8108,4.07995 -0.5993,0.37041 -1.8909,2.20639 -2.8701,4.07995 -6.9538,13.30465 -9.691,16.5077 -14.1069,16.5077 -1.9341,0 -11.033,1.23335 -20.2197,2.74079 -16.4623,2.70127 -16.7507,2.80471 -20.0037,7.17448 -1.8153,2.43854 -3.5861,4.71444 -3.9351,5.05757 -2.5029,2.4611 -7.5972,11.29437 -7.0367,12.20132 0.3966,0.64176 3.7701,0.45085 7.9173,-0.44805 3.9744,-0.86145 11.718,-2.21656 17.208,-3.01137 5.4901,-0.79481 11.2453,-1.74405 12.7893,-2.10943 2.0231,-0.47872 2.8074,-0.10366 2.8074,1.34255 0,1.10378 -0.4933,2.00687 -1.0963,2.00687 -0.603,0 -1.7476,1.57208 -2.5434,3.4935 -0.7959,1.92143 -3.659,5.77245 -6.3625,8.55782 -4.016,4.13758 -6.2334,5.31084 -12.1175,6.41155 -3.9612,0.74098 -13.6591,2.5428 -21.551,4.00404 -23.0149,4.26133 -62.8831,14.0893 -78.819,19.42975 -3.2045,1.0739 -8.8193,2.7151 -12.4774,3.64712 -7.6421,1.94711 -13.2705,3.81434 -34.1012,11.31314 -8.235,2.96452 -16.938,6.0678 -19.3399,6.89617 -11.4231,3.93967 -18.6304,6.69941 -24.5655,9.4064 -3.5604,1.62385 -7.0546,2.95245 -7.765,2.95245 -0.7104,0 -3.9737,1.18274 -7.2518,2.62832 -3.278,1.44556 -8.4867,3.73527 -11.5749,5.08822 -9.5889,4.20099 -15.3411,6.78045 -22.4593,10.07145 -10.6937,4.94411 -47.3407,23.32152 -54.2765,27.21812 -3.4313,1.92773 -7.3876,4.04295 -8.7919,4.7005 -2.179,1.02031 -20.7026,11.88365 -26.9113,15.78239 -1.1079,0.6957 -4.1961,2.54266 -6.8626,4.10436 -10.8859,6.37552 -13.6115,8.08962 -14.2062,8.93412 -0.3431,0.4872 -1.4661,1.27507 -2.4955,1.75082 -3.3334,1.54063 -24.9396,16.11982 -38.67982,26.09998 -10.58096,7.68543 -26.82609,19.9744 -28.69795,21.70917 -1.02938,0.95399 -4.11753,3.42969 -6.86255,5.50156 -5.73456,4.32828 -6.38248,4.84025 -15.61596,12.33895 -3.76381,3.05668 -7.79894,6.42557 -8.96693,7.48642 -1.16801,1.06085 -2.86338,2.49031 -3.76749,3.17656 -3.62589,2.75216 -19.34647,16.38504 -23.67904,20.53444 -2.53849,2.43117 -8.09087,7.50844 -12.33863,11.28285 -11.93981,10.60928 -59.78174,59.04804 -59.78174,60.52751 0,0.33938 -1.87893,2.44063 -4.17539,4.66946 -5.95284,5.77749 -17.32625,18.67873 -19.53161,22.15531 -1.02938,1.62276 -3.13494,4.17339 -4.67901,5.66809 -1.54407,1.4947 -2.80741,3.3551 -2.80741,4.13423 0,0.77912 -0.47258,1.41659 -1.05019,1.41659 -0.57761,0 -7.33691,8.00111 -15.02068,17.78025 -7.68376,9.77913 -15.07192,19.09128 -16.41812,20.69365 -1.34619,1.60237 -2.44763,3.12992 -2.44763,3.39455 0,0.26462 -3.36889,4.96094 -7.48642,10.43625 -4.11753,5.47531 -7.48642,10.54517 -7.48642,11.26636 0,0.72118 -0.42894,1.31125 -0.95319,1.31125 -0.52425,0 -2.34125,2.24592 -4.03776,4.99094 -1.69651,2.74502 -3.51351,4.99095 -4.03776,4.99095 -0.52425,0 -0.95319,0.53333 -0.95319,1.18519 0,0.65185 -1.82481,3.78945 -4.05514,6.97244 -2.23033,3.183 -4.61663,6.72041 -5.30288,7.8609 -0.68626,1.14051 -3.35329,5.21992 -5.92675,9.06535 -2.57346,3.84543 -4.67901,7.63543 -4.67901,8.42223 0,0.78678 -0.4581,1.43051 -1.01798,1.43051 -0.55988,0 -2.3847,2.31117 -4.05514,5.13594 -1.67045,2.82476 -4.00394,6.61476 -5.18554,8.42222 -1.18161,1.80746 -3.30158,5.25147 -4.71106,7.65337 -2.56698,4.3744 -5.32559,8.94657 -9.97486,16.53251 -1.36692,2.23033 -3.15993,5.45885 -3.98447,7.17448 -0.82454,1.71564 -2.19055,3.96157 -3.03558,4.99095 -0.84503,1.02938 -3.17701,4.95975 -5.18219,8.73416 -4.00334,7.53561 -10.67923,19.89435 -17.52392,32.44115 -2.43344,4.46066 -10.64664,20.62385 -18.25156,35.91821 L 631.323,1025.7311 Z m 5.91365,-50.75288 c 2.20663,-4.08764 7.39566,-13.88911 11.53118,-21.78105 4.13552,-7.89193 9.88278,-18.74199 12.77168,-24.11122 5.86137,-10.8938 5.79368,-7.25446 0.59002,-31.72499 -1.20394,-5.66161 -2.55909,-10.29383 -3.01145,-10.29383 -0.45236,0 -2.05576,2.3863 -3.56311,5.30288 -1.50735,2.91659 -4.42489,8.11029 -6.48342,11.54157 -2.05852,3.43127 -4.30304,7.36164 -4.98781,8.73415 -1.16035,2.32571 -2.27294,4.28704 -9.90915,17.46831 -9.95581,17.18529 -10.32651,18.13128 -9.51177,24.27311 0.4305,3.24525 1.55082,8.93734 2.4896,12.64907 0.93878,3.71173 2.08643,8.89022 2.55033,11.50774 0.4639,2.61752 1.4461,4.55825 2.18265,4.31274 0.73655,-0.24552 3.14462,-3.79084 5.35125,-7.87848 z m 41.82815,-76.59323 c 0,-0.63772 2.24593,-4.5408 4.99095,-8.67352 2.74502,-4.1327 4.99094,-7.7971 4.99094,-8.1431 0,-0.34601 1.414,-2.7596 3.14222,-5.36352 1.72822,-2.60394 3.83378,-5.782 4.67901,-7.06237 0.84524,-1.28037 2.43373,-3.5263 3.52999,-4.99094 5.48443,-7.32749 18.51897,-27.28587 19.17981,-29.36798 0.68318,-2.15251 -3.66351,-31.06566 -4.84843,-32.25057 -0.39214,-0.39214 -17.46485,24.34445 -23.81099,34.49963 -0.68626,1.09816 -3.35329,5.22517 -5.92675,9.17114 -12.00234,18.40359 -13.56973,21.07572 -13.55065,23.10157 0.0112,1.1908 0.98428,8.48176 2.16237,16.20213 1.49174,9.77588 2.64582,14.03704 3.80175,14.03704 0.91288,0 1.65978,-0.52178 1.65978,-1.15951 z m 57.39588,-86.3926 c 1.71564,-2.82391 3.69234,-5.75658 4.39266,-6.51707 0.70033,-0.76047 3.49934,-4.47082 6.22003,-8.24523 5.90296,-8.18915 6.88008,-9.45396 9.44472,-12.22533 3.24393,-3.50543 16.65858,-21.43563 17.9825,-24.03564 0.67742,-1.33037 1.63458,-2.41886 2.12701,-2.41886 1.2572,0 2.03819,-5.90722 2.92804,-22.14733 0.61567,-11.23603 0.43862,-14.02522 -0.88718,-13.97784 -1.58831,0.0568 -10.60585,10.59044 -26.61107,31.08524 -4.11753,5.27252 -8.32864,10.54811 -9.35802,11.72354 -1.02939,1.17543 -2.47212,2.81951 -3.20607,3.65351 -0.73396,0.83401 -3.85098,4.93595 -6.92673,9.11543 l -5.59225,7.59905 1.85753,15.79601 c 1.08321,9.21129 2.41028,15.78202 3.18351,15.76245 0.72929,-0.0185 2.72969,-2.34403 4.44532,-5.16793 z m 60.60956,-78.08493 c 8.63814,-9.57821 26.18499,-28.32181 36.88101,-39.39642 l 12.0206,-12.4461 0.81086,-10.10713 c 0.44598,-5.55893 1.13638,-12.49344 1.53424,-15.41002 0.46507,-3.40937 0.24261,-5.30288 -0.623,-5.30288 -0.74052,0 -5.27676,3.93037 -10.08054,8.73416 -4.80379,4.80378 -8.9857,8.73415 -9.29315,8.73415 -0.82437,0 -21.53015,21.13188 -29.47274,30.07925 -6.61922,7.4566 -6.87015,8.00053 -7.07694,15.34014 -0.2472,8.77417 0.76091,23.20613 1.62101,23.20613 0.32128,0 1.97666,-1.54408 3.67865,-3.43128 z m 69.29021,-72.21964 c 0.92865,-1.11896 7.59481,-7.12632 14.81369,-13.34968 7.21888,-6.22336 15.37115,-13.45324 18.11617,-16.0664 5.89702,-5.61373 6.7646,-6.37611 15.18273,-13.34163 5.83345,-4.82685 6.5295,-5.95024 7.29721,-11.77718 0.46676,-3.54275 1.56881,-9.95879 2.44898,-14.25788 1.66142,-8.11496 0.52792,-11.46676 -2.48457,-7.34694 -0.82936,1.13423 -2.11999,2.06223 -2.86804,2.06223 -0.74807,0 -1.80914,0.77044 -2.35793,1.71211 -0.54879,0.94165 -4.92817,4.65857 -9.73196,8.25983 -4.80378,3.60125 -9.65173,7.46302 -10.77319,8.58172 -1.12147,1.11869 -4.7329,4.27992 -8.02542,7.02494 -3.2925,2.74502 -10.02379,8.79137 -14.9584,13.43633 l -8.97203,8.44538 -0.82153,9.02293 c -0.45186,4.96261 -1.14861,11.40923 -1.54836,14.32581 -0.57464,4.19274 -0.33731,5.30288 1.1337,5.30288 1.02328,0 2.62031,-0.91551 3.54895,-2.03445 z m 77.79866,-66.27913 c 2.2126,-1.8872 5.3033,-4.27349 6.86822,-5.30288 1.56491,-1.02938 3.47835,-2.43308 4.25208,-3.11934 2.20212,-1.95315 11.12772,-8.59949 13.40504,-9.98189 1.13051,-0.68626 5.56271,-3.7744 9.84934,-6.86255 4.28664,-3.08815 8.70234,-6.1763 9.81266,-6.86255 7.54172,-4.66129 11.43696,-8.66751 12.5181,-12.87476 0.64922,-2.52646 2.31583,-8.78672 3.70363,-13.9117 1.3877,-5.12498 2.2491,-9.5922 1.9141,-9.92717 -0.8393,-0.83929 -9.24464,3.79117 -9.24464,5.09282 0,0.57819 -0.58734,1.05126 -1.30518,1.05126 -0.71785,0 -7.22081,4.07074 -14.45101,9.04609 -7.23021,4.97535 -14.29874,9.69716 -15.70784,10.49292 -1.40908,0.79575 -2.90723,1.9263 -3.32922,2.51231 -0.42198,0.58603 -3.85539,3.17729 -7.6298,5.75836 -12.79686,8.75095 -12.42443,8.25023 -15.04045,20.22134 -4.02824,18.43351 -3.2159,21.15076 4.38497,14.66774 z m 82.62407,-57.53056 c 3.9945,-2.64754 10.5419,-6.71828 14.5498,-9.04609 4.0079,-2.32782 8.7805,-5.13544 10.6058,-6.23916 1.8252,-1.10372 5.4242,-3.20928 7.9976,-4.67901 2.5735,-1.46973 6.7846,-3.89002 9.358,-5.37841 2.5735,-1.48838 6.7674,-3.73911 9.3199,-5.00162 5.2619,-2.60265 6.6118,-4.59608 7.8925,-11.65511 0.4958,-2.73238 1.5898,-6.37168 2.4312,-8.08732 2.6963,-5.49813 3.3607,-9.98189 1.4791,-9.98189 -1.7029,0 -12.6574,5.37882 -20.8107,10.21836 -2.4019,1.42569 -7.4552,4.25481 -11.2296,6.28692 -13.7485,7.40214 -31.3867,18.81444 -33.0715,21.39795 -0.9498,1.45652 -2.3109,5.17487 -3.0247,8.26302 -0.7138,3.08815 -2.1063,8.23056 -3.0945,11.4276 -1.5218,4.92337 -1.5196,7.28845 0.01,7.28845 0.1802,0 3.5959,-2.16616 7.5904,-4.81369 z m 91.9508,-51.30454 c 35.661,-17.00842 41.6496,-19.78629 44.4526,-20.61955 4.8715,-1.44816 6.3566,-3.1556 10.3084,-11.85152 4.8953,-10.77205 6.0263,-14.75502 4.4642,-15.72051 -1.2619,-0.77984 -7.2062,1.30676 -16.6442,5.84247 -2.745,1.3192 -5.4468,2.39699 -6.004,2.39509 -1.2538,-0.004 -10.8824,4.43062 -29.3991,13.54124 -11.4532,5.63524 -14.5097,7.71065 -15.8404,10.75596 -2.6035,5.95786 -8.024,20.33186 -8.024,21.27785 0,1.47534 6.155,-0.59802 16.6865,-5.62103 z m 74.7897,-33.27837 c 0.444,-0.44402 3.4854,-1.74333 6.7586,-2.88737 14.3705,-5.02273 40.0106,-13.66838 44.0072,-14.83887 14.1273,-4.13751 13.4395,-3.51883 21.3575,-19.21049 0.606,-1.20095 1.7896,-3.29249 2.6302,-4.64787 2.7859,-4.49187 -0.2271,-5.20632 -9.677,-2.29463 -26.9883,8.31552 -55.5149,18.22312 -57.7313,20.05064 -0.8918,0.73534 -2.7646,3.91219 -4.1619,7.05968 -1.3972,3.14749 -3.6153,7.84556 -4.9291,10.44015 -1.3139,2.59459 -2.3888,5.26162 -2.3888,5.92674 0,1.35979 2.8953,1.6413 4.1346,0.40202 z m 102.5469,-32.8721 c 6.1763,-1.43031 16.5637,-3.95567 23.0831,-5.6119 6.5194,-1.65623 14.9417,-3.78148 18.7161,-4.72277 6.1967,-1.54541 7.3099,-2.36835 11.474,-8.48243 2.5364,-3.72404 4.6419,-7.40409 4.679,-8.17788 0.037,-0.77379 0.9098,-2.10587 1.9391,-2.96019 5.3296,-4.42313 -0.3708,-4.83454 -17.0621,-1.2314 -6.3997,1.38149 -17.2506,3.71852 -24.1132,5.19341 -26.7883,5.75731 -24.1655,4.43303 -30.1241,15.20994 -6.7524,12.21272 -7.5424,16.58413 -2.629,14.54749 1.5441,-0.64003 7.8608,-2.33395 14.0371,-3.76427 z"
       id="path4" />
    <path
       style="fill:#000000;stroke-width:1.24774"
       d="m 667.79375,1020.3366 c 2.41594,-4.9753 5.41524,-11.292 6.66511,-14.037 1.24988,-2.745 5.20737,-10.88651 8.79443,-18.09219 3.58705,-7.20568 6.99323,-14.08383 7.56929,-15.28478 0.57606,-1.20094 1.569,-3.23505 2.20654,-4.52025 1.5958,-3.21691 11.21597,-20.90013 14.68065,-26.9851 1.56297,-2.74502 3.83212,-6.95613 5.04254,-9.35802 1.21043,-2.40189 2.5257,-4.64782 2.92282,-4.99095 0.39713,-0.34312 2.36232,-3.71007 4.36708,-7.4821 2.00477,-3.77202 5.75059,-10.0614 8.32405,-13.9764 2.57345,-3.915 4.67901,-7.43133 4.67901,-7.81407 0,-0.38275 3.22427,-5.60374 7.16504,-11.60221 3.94078,-5.99845 7.45003,-11.46777 7.79836,-12.15402 0.34832,-0.68626 3.44071,-5.38677 6.87199,-10.44559 3.43127,-5.05881 6.85001,-10.24866 7.59719,-11.53297 0.74718,-1.28432 2.29126,-3.36579 3.43128,-4.6255 1.14002,-1.25971 2.07276,-2.92012 2.07276,-3.6898 0,-0.76968 0.7035,-1.84844 1.56332,-2.39723 1.29636,-0.82741 6.08336,-7.42392 12.78565,-17.6187 0.68626,-1.04386 1.92597,-2.78453 2.75491,-3.86814 0.82893,-1.08362 3.20233,-4.21615 5.27419,-6.96117 2.07187,-2.74502 4.55299,-5.83317 5.51363,-6.86255 0.96063,-1.02938 4.59908,-5.65952 8.08545,-10.2892 7.72498,-10.25826 8.96593,-11.77995 11.74878,-14.40676 1.20095,-1.13361 2.18354,-2.73175 2.18354,-3.55144 0,-0.81967 0.43226,-1.67748 0.96058,-1.90624 0.52833,-0.22875 4.58649,-4.90776 9.01817,-10.3978 4.43167,-5.49004 8.63163,-10.60645 9.33324,-11.3698 0.70162,-0.76335 5.48677,-6.09466 10.63369,-11.84735 24.06408,-26.89635 57.28977,-60.14587 80.91081,-80.96886 20.64112,-18.19605 24.48509,-21.52646 30.24303,-26.20247 2.95764,-2.40189 7.42876,-6.05152 9.93581,-8.11029 2.50707,-2.05876 7.02862,-5.51129 10.0479,-7.67228 3.01929,-2.16098 10.62634,-7.77579 16.90456,-12.47736 6.27825,-4.70156 12.66365,-9.39052 14.18995,-10.4199 1.5262,-1.02939 3.408,-2.45338 4.1817,-3.16441 2.5698,-2.36158 13.368,-9.31296 14.4666,-9.31296 0.5947,0 1.2684,-0.4538 1.4971,-1.00846 0.5441,-1.31907 21.9404,-15.87347 27.8662,-18.95533 1.3725,-0.71381 5.0221,-2.95002 8.1102,-4.96936 3.0882,-2.01934 7.2993,-4.53217 9.3581,-5.58408 2.0587,-1.0519 5.7084,-3.11965 8.1103,-4.59499 2.4019,-1.47534 7.4552,-4.37294 11.2296,-6.4391 3.7744,-2.06618 11.0737,-6.11973 16.2206,-9.00792 22.5024,-12.62718 70.1983,-34.80686 97.9473,-45.54776 7.5488,-2.92194 15.4095,-6.03237 17.4683,-6.91207 3.7831,-1.61649 10.0988,-3.99231 18.0922,-6.80579 2.4019,-0.84542 6.7684,-2.58956 9.7033,-3.87588 2.935,-1.28632 6.0123,-2.33877 6.8385,-2.33877 0.8262,0 4.3204,-1.05526 7.7649,-2.34503 3.4446,-1.28976 10.1932,-3.50927 14.997,-4.93224 4.8038,-1.42297 12.3838,-3.67634 16.8444,-5.0075 4.4607,-1.33115 12.8829,-3.65679 18.7161,-5.16809 5.8332,-1.5113 14.2554,-3.73613 18.716,-4.94406 8.1016,-2.19389 23.9317,-5.65347 43.3614,-9.47642 l 10.2964,-2.02589 10.2913,10.7114 c 5.6602,5.89127 24.7039,25.45008 42.3193,43.46402 21.7616,22.254 31.5138,33.04265 30.4238,33.65741 -0.8823,0.49763 -6.6184,1.47281 -12.747,2.16706 -6.1285,0.69424 -13.9237,2.10583 -17.3226,3.13685 -3.3989,1.03102 -7.634,1.88065 -9.4115,1.88808 -1.7774,0.007 -7.3922,1.0596 -12.4773,2.33815 -19.245,4.83874 -18.2716,4.98351 -30.0259,-4.46567 -5.7273,-4.60406 -12.6591,-10.45211 -15.4042,-12.99565 -2.745,-2.54354 -6.9966,-6.21425 -9.4479,-8.15714 -2.4514,-1.94288 -5.4384,-4.51427 -6.6379,-5.71418 -3.9255,-3.92694 -13.1012,-4.36648 -18.2269,-0.87312 -1.5603,1.06341 -1.1484,1.83861 2.4767,4.66065 7.3867,5.75029 25.2322,21.59026 32.7925,29.10714 l 7.1952,7.15386 -6.7633,1.96615 c -3.7199,1.08139 -7.6535,1.96616 -8.7415,1.96616 -1.088,0 -4.9319,1.12268 -8.5421,2.49484 -3.6102,1.37217 -7.7525,2.49513 -9.205,2.49548 -1.4526,3.4e-4 -5.383,1.03707 -8.7342,2.30383 -8.5888,3.24657 -21.6236,7.36846 -26.1269,8.26191 -2.8707,0.56951 -4.9663,-0.0259 -8.4777,-2.40882 -2.5654,-1.74094 -4.9429,-3.16535 -5.2834,-3.16535 -0.3404,0 -2.1403,-1.03512 -3.9997,-2.30028 -1.8594,-1.26515 -5.6267,-3.72511 -8.3717,-5.46657 -2.745,-1.74146 -10.0443,-6.45184 -16.2206,-10.46752 -9.5906,-6.23559 -12.0491,-7.29096 -16.8444,-7.23095 -3.0882,0.0387 -6.95,0.78903 -8.5819,1.66752 l -2.9671,1.59726 3.2246,2.98998 c 1.7735,1.64449 3.5134,2.98999 3.8664,2.98999 1.1974,0 12.5623,8.10095 13.5661,9.66995 0.5488,0.85782 1.8121,1.55968 2.8074,1.55968 0.9953,0 1.8359,0.42111 1.868,0.9358 0.032,0.51469 2.8604,2.90099 6.2849,5.30288 3.4245,2.40189 8.2837,6.1662 10.7981,8.36512 4.1313,3.61289 4.3372,4.07647 2.1374,4.8119 -6.3774,2.13206 -17.1995,6.34161 -27.5374,10.71146 -6.2579,2.6452 -12.0207,4.80946 -12.8063,4.80946 -0.7855,0 -2.4032,0.53291 -3.5948,1.18425 -5.7896,3.1645 -18.8194,8.62911 -22.3366,9.36777 -3.3609,0.70583 -7.9334,-1.13398 -30.6879,-12.34772 -16.0854,-7.92715 -28.24,-13.17714 -30.507,-13.17714 -2.0727,0 -5.3884,1.22744 -7.3681,2.72764 -1.9798,1.50022 -3.8393,2.90972 -4.1323,3.13224 -0.9773,0.74215 4.2442,4.04207 6.4595,4.08234 1.2009,0.0218 2.1835,0.51589 2.1835,1.09792 0,0.58202 2.246,2.071 4.991,3.30883 2.745,1.23783 4.9909,2.62282 4.9909,3.07774 0,0.45493 1.8248,1.7964 4.0552,2.98102 4.7829,2.54046 6.338,3.48509 17.5303,10.64849 9.2555,5.92378 9.2516,5.76397 0.2499,10.39261 -2.0588,1.0586 -7.9543,4.24662 -13.1012,7.08447 -5.1469,2.83785 -11.4636,6.07804 -14.0371,7.20043 -2.5734,1.12237 -4.679,2.43174 -4.679,2.90967 0,0.47793 -2.2459,1.88173 -4.9909,3.11956 -2.745,1.23783 -4.991,2.72682 -4.991,3.30884 0,0.58203 -0.8173,1.05824 -1.8162,1.05824 -1.692,0 -8.067,3.76784 -13.7223,8.11038 -1.3405,1.02933 -2.845,1.87152 -3.3432,1.87152 -0.4983,0 -5.4803,2.91156 -11.0711,6.47013 -5.5909,3.55859 -10.5435,5.94488 -11.0058,5.30288 -0.9292,-1.29031 -4.708,-2.84316 -19.5566,-8.03639 -27.0345,-9.45523 -40.4024,-11.43612 -47.102,-6.97973 -1.8872,1.2553 -3.4313,2.66649 -3.4313,3.13595 0,0.46947 2.1055,1.58801 4.679,2.48563 9.4693,3.30294 45.3453,19.84829 47.4302,21.87393 0.3831,0.37226 -13.2471,10.68422 -14.1223,10.68422 -0.5789,0 -12.7901,9.34509 -17.0873,13.07672 -1.201,1.04287 -2.7451,1.89612 -3.4313,1.89612 -0.6863,0 -1.2477,0.50295 -1.2477,1.11766 0,0.61472 -2.9187,2.99059 -6.486,5.2797 -3.5673,2.28912 -7.9188,5.42708 -9.67,6.97325 -14.5595,12.85494 -26.3826,21.56602 -29.2703,21.56602 -1.6231,0 -9.0509,-1.99355 -16.50641,-4.43011 -7.45547,-2.43656 -18.42638,-5.02111 -24.3798,-5.74346 -10.62544,-1.28922 -10.94081,-1.25001 -17.15638,2.13293 -3.48259,1.89546 -6.33198,3.896 -6.33198,4.44564 0,0.54965 2.3863,1.64327 5.30288,2.4303 2.91659,0.78702 8.0448,2.49401 11.39602,3.79329 3.35123,1.29929 6.84384,2.36235 7.76138,2.36235 0.91752,0 4.73704,1.40371 8.48782,3.11934 3.75075,1.71564 7.06771,3.11935 7.37101,3.11935 0.30329,0 2.68643,0.89205 5.29586,1.98234 l 4.74442,1.98234 -6.77559,6.25284 c -13.40765,12.37326 -49.69065,48.7783 -50.36425,50.53367 -0.37859,0.98659 -1.18478,1.48699 -1.79151,1.11201 -2.76749,-1.71041 -28.23996,-5.93188 -39.76507,-6.59013 -12.48813,-0.71327 -12.88948,-0.65147 -17.78025,2.73783 -5.46974,3.79054 -6.52059,6.8714 -2.34377,6.8714 2.86066,0 28.12498,6.43911 33.91759,8.64456 1.93187,0.73554 4.73927,1.34593 6.23868,1.35644 1.49939,0.0105 3.5684,0.59673 4.59778,1.30271 1.60085,1.09792 1.46547,1.56843 -0.9358,3.25242 -1.54407,1.08285 -2.80741,2.4288 -2.80741,2.99099 0,0.56218 -2.38629,3.54299 -5.30288,6.624 -6.27963,6.63366 -5.87953,6.16066 -20.68686,24.4564 -6.40242,7.91075 -12.01873,15.04782 -12.4807,15.86016 -0.61891,1.08837 -3.13715,1.18119 -9.57073,0.35276 -4.80197,-0.61833 -13.60072,-1.1426 -19.5528,-1.16505 -9.75488,-0.0368 -11.1875,0.26676 -14.52909,3.07852 -2.03893,1.71564 -4.09038,3.11934 -4.5588,3.11934 -0.46841,0 -2.53611,1.68445 -4.59487,3.74321 l -3.74321,3.74321 5.39887,-0.009 c 10.50363,-0.0175 37.21614,2.89589 37.21614,4.05897 0,1.42385 -5.12481,8.88171 -6.50555,9.46717 -0.53949,0.22876 -0.98087,1.03479 -0.98087,1.79119 0,0.7564 -1.06264,2.53443 -2.36141,3.95117 -3.52623,3.84654 -16.41344,23.15574 -17.68292,26.49473 -0.60799,1.59912 -1.68081,2.9075 -2.38405,2.9075 -0.70324,0 -1.27862,0.81092 -1.27862,1.80203 0,0.99112 -1.29208,3.30414 -2.87128,5.14009 -2.59836,3.02077 -4.0512,3.44224 -15.28477,4.43419 -6.82743,0.60288 -14.94016,1.62489 -18.02831,2.27113 -3.08815,0.64626 -7.75169,1.52089 -10.36343,1.94366 -3.6308,0.58773 -6.54956,2.56963 -12.39938,8.41944 -4.20792,4.20792 -6.98449,7.87287 -6.17015,8.14432 0.81434,0.27144 4.31614,-0.11458 7.78178,-0.85782 5.63203,-1.20786 38.61949,-1.993 38.61949,-0.9192 0,0.97239 -4.23678,8.97174 -5.05792,9.54973 -0.48748,0.34313 -1.93517,2.66243 -3.21708,5.154 -1.28192,2.49158 -4.74162,9.22936 -7.68823,14.97284 -2.94662,5.7435 -6.70983,12.68863 -8.36269,15.43363 -1.65288,2.745 -3.39434,5.7489 -3.86993,6.6752 -1.88503,3.6717 -7.54251,8.1827 -14.14718,11.2803 -6.74253,3.1622 -7.76128,3.268 -35.35815,3.6704 l -28.41559,0.4144 3.01333,-6.653 c 6.14252,-13.562 13.56851,-29.40614 18.49323,-39.45737 2.78776,-5.68975 4.69215,-10.72149 4.23198,-11.18167 -0.46018,-0.46017 -4.88222,0.50393 -9.82676,2.14245 -15.93261,5.27974 -18.3481,6.43312 -18.3481,8.76114 0,1.21398 -0.82047,2.88817 -1.82328,3.72042 -1.00281,0.83225 -2.17498,2.72582 -2.60482,4.20793 -0.42985,1.4821 -2.96078,7.18657 -5.6243,12.6766 -2.66351,5.4901 -6.40431,13.4853 -8.31287,17.7673 l -3.47012,7.7853 -11.427,0.013 -11.42699,0.013 z m 65.22942,-60.84541 c 3.78656,-1.2035 8.40054,-2.53756 10.2533,-2.96461 2.56012,-0.59007 4.8062,-3.19853 9.35802,-10.86779 3.29416,-5.55026 7.39308,-10.81634 9.10872,-11.70242 7.5658,-3.90753 24.93865,-9.81776 36.36008,-12.36969 2.34923,-0.52488 4.22955,-2.5234 6.55062,-6.96236 1.79055,-3.42436 3.25556,-6.80458 3.25556,-7.51157 0,-1.64716 -8.19865,-0.52017 -18.09219,2.48696 -4.11753,1.25152 -8.97833,2.60339 -10.80178,3.00417 -1.82344,0.40078 -4.27453,1.09676 -5.44687,1.54663 -3.31401,1.2717 -1.40082,-3.17236 6.0517,-14.05719 3.54956,-5.18433 7.09056,-10.54753 7.8689,-11.91822 0.77835,-1.3707 2.04169,-3.11869 2.80741,-3.88441 4.21539,-4.2154 -1.90762,-3.99645 -18.23524,0.65204 -8.45454,2.40702 -9.28743,2.96868 -13.24816,8.93387 -8.08422,12.17551 -15.78608,24.38102 -15.78608,25.01694 0,0.35195 -1.87327,3.59857 -4.16281,7.21474 -3.94235,6.22664 -9.26441,15.77312 -17.09818,30.66998 l -3.48483,6.62681 3.92859,-0.86287 c 2.16073,-0.47458 7.02668,-1.84753 10.81324,-3.05101 z m 51.80317,-91.0665 c 5.36646,-1.37251 11.28863,-2.49547 13.16037,-2.49547 2.37551,0 4.29335,-1.19928 6.35103,-3.97142 6.36975,-8.58149 10.61411,-12.02062 17.27706,-13.9993 3.69126,-1.09618 8.15355,-2.00411 9.91619,-2.01761 1.76265,-0.0135 7.69666,-0.83615 13.18671,-1.82808 5.49004,-0.99194 10.10289,-1.82311 10.2508,-1.84705 0.14791,-0.024 1.91005,-1.6478 3.91588,-3.60856 3.83472,-3.74855 6.99266,-8.75656 6.09054,-9.65868 -0.29293,-0.29293 -6.37435,0.0387 -13.51426,0.73692 -27.68963,2.70787 -25.05043,2.74842 -23.41175,-0.35973 1.50419,-2.85308 15.02209,-20.86885 18.85232,-25.12517 1.20095,-1.33454 2.18354,-3.48136 2.18354,-4.77072 0,-1.64607 -0.65033,-2.15255 -2.18354,-1.7005 -1.20094,0.35407 -6.49881,1.22344 -11.77303,1.93193 -7.59761,1.0206 -10.25413,1.95281 -12.7893,4.48797 -1.75989,1.7599 -3.19981,3.53101 -3.19981,3.93581 0,0.4048 -1.26333,2.01084 -2.8074,3.56898 -1.54408,1.55812 -3.36889,3.59944 -4.05515,4.53628 -0.68625,0.93683 -3.79741,5.06045 -6.91367,9.16362 -3.11627,4.10315 -6.60272,8.86399 -7.74767,10.57963 -1.14495,1.71564 -4.33585,6.20749 -7.09089,9.98189 -9.39474,12.87077 -12.56052,17.5927 -12.56052,18.73471 0,0.62769 -1.12297,1.74227 -2.49548,2.47681 -2.49457,1.33506 -3.42569,3.74321 -1.44733,3.74321 0.57648,0 5.43889,-1.12296 10.80536,-2.49547 z m 70.22378,-84.30218 10.33241,-0.87287 4.64042,-5.95685 c 7.31719,-9.39299 10.18443,-10.33067 33.33837,-10.90275 l 19.96378,-0.49326 5.30288,-5.14399 c 2.91659,-2.82918 5.30288,-5.79753 5.30288,-6.59632 0,-0.79879 -2.22835,-1.80867 -4.9519,-2.24419 -5.18729,-0.82947 -31.877,1.08869 -35.73213,2.56804 -1.96807,0.75522 -1.91896,0.42116 0.41199,-2.80239 1.45551,-2.0129 8.02402,-9.41623 14.59667,-16.45186 6.57265,-7.03561 11.95027,-13.28679 11.95027,-13.89151 0,-1.75278 -4.89689,-2.6029 -15.09892,-2.62123 l -9.48411,-0.017 -9.23194,9.79064 c -10.32142,10.94605 -23.85712,26.0107 -29.32048,32.6324 -1.98171,2.40189 -4.23419,4.92856 -5.00549,5.61482 -3.43804,3.05896 -13.97727,17.90867 -13.2362,18.64973 0.45264,0.45265 1.96285,0.5504 3.35603,0.21724 1.39318,-0.33317 7.18264,-0.99854 12.86547,-1.47862 z m 73.97177,-79.15132 h 9.75194 l 10.32465,-9.66996 c 5.67854,-5.31847 11.63293,-10.93329 13.23194,-12.47736 1.599,-1.54408 3.12241,-2.80741 3.38534,-2.80741 0.26292,0 2.98069,-2.3863 6.03948,-5.30288 3.0588,-2.91658 8.79144,-8.11029 12.73923,-11.54156 3.94777,-3.43128 8.64412,-7.54454 10.4363,-9.14059 1.79219,-1.59605 4.52186,-3.76618 6.06593,-4.82251 4.306,-2.94581 3.4236,-5.00772 -2.49547,-5.83155 -19.09196,-2.65724 -17.85944,-2.77962 -24.31989,2.41461 -6.2975,5.06322 -13.85297,11.80535 -18.42797,16.44423 -1.52282,1.54408 -3.04801,2.80741 -3.38936,2.80741 -2.41762,0 -42.24339,38.75108 -41.3355,40.22008 0.41017,0.66365 2.43227,0.86932 4.4936,0.45706 2.06132,-0.41227 8.13621,-0.74957 13.49978,-0.74957 z m 94.20921,-23.76693 c 3.0403,-2.09173 5.5277,-4.21108 5.5277,-4.70966 0,-0.49858 -4.3514,-1.64503 -9.6699,-2.54767 -18.7712,-3.18581 -20.88247,-3.19384 -27.36844,-0.10424 -5.67342,2.70253 -12.52795,7.23039 -11.47968,7.58306 3.36764,1.13299 21.27942,3.2954 28.32942,3.4201 8.2749,0.14637 9.6528,-0.19588 14.6609,-3.64159 z m 8.3961,-53.90467 c 4.2556,-2.91659 8.0827,-5.77478 8.5047,-6.35153 0.4219,-0.57675 1.8857,-1.69972 3.2528,-2.49547 1.3671,-0.79576 4.9522,-3.11981 7.9669,-5.16455 3.0147,-2.04474 6.4232,-4.29066 7.5743,-4.99094 1.1511,-0.70028 6.3257,-4.22101 11.4991,-7.82385 5.1734,-3.60284 9.6663,-6.55062 9.9842,-6.55062 0.318,0 3.9594,-2.24592 8.0921,-4.99094 4.1327,-2.74502 7.8341,-4.99095 8.2253,-4.99095 1.9214,0 10.6608,-6.79905 10.2651,-7.98606 -0.2498,-0.74962 -2.3733,-1.73011 -4.7189,-2.17888 -2.3455,-0.44874 -7.3736,-1.52422 -11.1736,-2.38993 -3.7999,-0.86571 -8.3608,-1.20964 -10.1353,-0.76428 -3.0541,0.76656 -46.653,29.48145 -56.5721,37.25931 -0.6863,0.53811 -7.0688,5.24405 -14.1835,10.45766 -7.6415,5.5997 -12.47722,9.93771 -11.81552,10.59941 1.05187,1.05186 14.25942,3.15661 22.00482,3.50666 2.2466,0.10154 6.2519,-1.73355 11.2296,-5.14504 z m 95.9251,-19.80906 c 3.008,-1.1873 5.5466,-4.47171 4.3677,-5.65068 -0.2529,-0.25288 -6.7565,-1.79051 -14.4525,-3.41695 l -13.9926,-2.95718 -8.0411,3.39247 c -9.0324,3.81067 -10.406,4.7654 -7.898,5.48936 1.6646,0.4805 20.8106,3.99374 27.3169,5.01261 3.7197,0.58248 8.1336,-0.0673 12.6996,-1.86963 z m 6.0164,-44.73872 c 0,-0.45753 5.7552,-3.65558 12.7893,-7.10678 13.3027,-6.52681 19.1929,-9.30634 49.95,-23.57111 19.1186,-8.86698 21.8613,-11.44637 13.902,-13.07422 -2.1025,-0.43 -5.6946,-1.71566 -7.9825,-2.85702 -5.5657,-2.77653 -12.239,-2.61185 -17.2198,0.42495 -2.2469,1.36994 -4.9431,2.49081 -5.9915,2.49081 -1.0484,0 -3.9826,1.08568 -6.5204,2.41263 -2.5379,1.32696 -12.624,6.39471 -22.4137,11.26167 -19.6833,9.78568 -26.5273,13.44682 -28.3045,15.14122 -0.6519,0.62159 -2.196,1.13016 -3.4313,1.13016 -1.2352,0 -2.2472,0.42111 -2.2489,0.9358 0,0.51469 -3.11,2.55934 -6.9076,4.54366 -3.7976,1.98432 -6.6997,4.23025 -6.4491,4.99094 0.951,2.88672 30.828,6.0629 30.828,3.27729 z m 100.2868,-5.75019 c 4.0937,-1.5709 2.4998,-2.92099 -11.5007,-9.74125 -8.0744,-3.93341 -19.592,-4.46121 -25.19,-1.15436 l -3.5429,2.09285 3.3503,1.81382 c 1.8428,0.9976 7.2808,3.42641 12.0846,5.39736 7.1306,2.92562 10.013,3.47582 15.6999,2.99683 3.8311,-0.32268 7.9256,-0.95504 9.0988,-1.40525 z m 90.7841,-34.39748 c 5.34,-1.59991 6.1079,-2.96996 2.3357,-4.16723 -1.3685,-0.43433 -3.2042,-1.45476 -4.0794,-2.26762 -3.1637,-2.93835 -16.9009,-9.58806 -19.7933,-9.58126 -4.9834,0.0117 -12.5016,2.56468 -11.9984,4.07433 0.9821,2.94624 20.3951,13.24832 25.1132,13.32701 1.9791,0.033 5.7691,-0.59034 8.4222,-1.38523 z m -83.1334,-8.42357 c 2.0542,-0.62406 7.6653,-2.62246 12.4691,-4.44088 14.6284,-5.53742 27.8992,-10.10151 45.3673,-15.60276 9.1681,-2.88733 16.1866,-5.70752 15.5967,-6.26709 -1.0454,-0.99159 -6.2856,-4.04385 -15.6968,-9.14293 -5.0374,-2.72935 -4.219,-2.83318 -22.1841,2.81427 -3.7744,1.18651 -11.0736,3.45369 -16.2205,5.03817 -5.147,1.58448 -12.1,3.92566 -15.4512,5.20262 -3.3512,1.27695 -6.7413,2.32173 -7.5335,2.32173 -1.1716,0 -8.9162,3.07681 -24.1174,9.58149 -2.9465,1.26081 -1.5558,3.94618 2.4955,4.81862 2.2303,0.48031 5.7396,1.74826 7.7983,2.81767 2.0588,1.06942 5.7084,2.34093 8.1103,2.82558 2.4019,0.48465 4.6515,0.94576 4.9992,1.02468 0.3477,0.0789 2.3128,-0.36711 4.3671,-0.99117 z m 183.3032,-13.66698 c 0.6894,-1.11539 -3.7525,-5.48214 -12.3715,-12.16242 -8.3416,-6.46523 -9.5882,-6.84562 -17.3349,-5.28984 l -6.962,1.39817 10.9007,8.54584 c 10.5506,8.27137 11.1287,8.54647 18.0015,8.56531 3.9055,0.0107 7.4003,-0.46497 7.7662,-1.05706 z m -72.8868,-20.08453 c 5.1469,-1.26794 14.9729,-3.5107 21.8354,-4.9839 6.8626,-1.47321 17.3667,-3.89559 23.3425,-5.38308 10.5334,-2.62197 10.8,-2.77706 8.7341,-5.08094 -1.172,-1.30703 -5.4998,-4.62297 -9.6173,-7.36876 l -7.4864,-4.99235 -8.1103,1.4294 c -23.1105,4.07309 -68.6255,15.27207 -68.6255,16.88528 0,1.71979 5.5577,5.16867 15.5704,9.66234 8.0756,3.62428 8.9889,3.61798 24.3571,-0.16799 z"
       id="path5" />
    <path
       style="fill:#000000;stroke-width:1.24774"
       d="m 1057.3173,1024.7037 c -2.71,-6.3081 -14.8333,-42.25991 -14.8333,-43.98854 0,-0.56471 2.9477,0.10663 6.5506,1.49188 3.6028,1.38525 8.7837,3.34321 11.513,4.35101 2.7294,1.00781 8.7962,3.75637 13.4818,6.10794 4.6857,2.35156 9.1217,4.27557 9.858,4.27557 1.878,0 0.22,-9.45623 -2.4581,-14.01884 -2.2102,-3.76556 -7.8673,-6.86396 -32.0828,-17.57188 l -12.4774,-5.5174 -1.424,-6.7126 c -0.7833,-3.69194 -2.3273,-10.05909 -3.4313,-14.14924 -1.104,-4.09015 -2.0072,-8.81101 -2.0072,-10.49079 0,-1.67979 -1.0895,-9.00144 -2.4211,-16.27036 -2.9083,-15.87572 -4.0624,-34.28263 -2.0505,-32.70417 0.7437,0.58349 2.7559,1.37056 4.4716,1.74904 1.7156,0.37847 7.8919,2.62847 13.7251,4.99998 5.8332,2.37151 12.7895,4.70396 15.4585,5.18324 l 4.8527,0.87141 -0.8598,-5.37726 c -0.473,-2.95749 -1.7904,-5.94537 -2.9277,-6.63975 -4.266,-2.60452 -21.1747,-11.8588 -28.754,-15.73732 -4.3248,-2.21308 -8.3195,-4.91492 -8.8771,-6.00411 -3.0622,-5.98116 -2.3193,-57.39008 0.8446,-58.44471 0.8507,-0.28357 1.5467,-1.21314 1.5467,-2.06571 0,-0.85257 1.3562,-2.82419 3.0138,-4.38139 l 3.0137,-2.83126 13.5188,7.8134 c 7.4353,4.29738 14.5146,8.66075 15.7318,9.69638 3.4004,2.89332 4.8353,0.28297 4.4053,-8.0144 -0.302,-5.82644 -0.8903,-7.59198 -2.8751,-8.62779 -1.3725,-0.71627 -6.3535,-3.77121 -11.0688,-6.78876 l -8.5734,-5.48645 14.812,-14.71447 c 8.1467,-8.09295 15.1508,-14.73745 15.5647,-14.76555 0.414,-0.0281 0.4834,2.75074 0.1544,6.17519 -0.6405,6.66541 0.2611,8.40876 9.6851,18.72845 2.1935,2.4019 5.3629,5.98166 7.0431,7.95503 1.6802,1.97338 3.2784,3.36456 3.5514,3.09153 0.273,-0.27304 0.8605,-7.78317 1.3054,-16.68919 1.2344,-24.70926 4.8665,-44.26683 8.221,-44.26683 0.7992,0 2.0764,-0.78043 2.8383,-1.73429 1.9004,-2.3792 19.7211,-15.90635 20.2535,-15.37389 0.236,0.23596 -0.1395,2.35701 -0.8343,4.71345 -1.3877,4.70615 -5.553,30.65723 -7.597,47.33135 -0.7151,5.83317 -1.287,26.0955 -1.271,45.0274 0.043,51.18166 5.1496,89.38477 19.081,142.75697 1.9705,7.5488 4.2237,16.25177 5.0072,19.33991 0.7835,3.08815 2.3995,8.42223 3.5912,11.8535 1.1917,3.43128 3.1413,9.04609 4.3325,12.47737 1.1912,3.43127 2.4316,7.64239 2.7565,9.35805 0.3248,1.7156 1.6618,5.4995 2.971,8.4086 1.3091,2.9091 2.3803,6.16 2.3803,7.2242 0,1.0642 1.1229,4.1361 2.4955,6.8264 1.3725,2.6904 2.4954,5.4754 2.4954,6.189 0,0.8116 -4.6722,1.2975 -12.4773,1.2975 -8.511,0 -12.4774,-0.4524 -12.4774,-1.4231 0,-3.4226 -5.4794,-11.9258 -9.1218,-14.1555 -16.9433,-10.3718 -23.1408,-13.7139 -23.9431,-12.9116 -0.3372,0.3373 1.3496,6.6688 3.7485,14.07 2.3989,7.4013 4.3617,13.6736 4.3617,13.9385 0,0.2649 -11.5304,0.4817 -25.623,0.4817 h -25.6229 z m 65.7454,-33.06502 c -0.8912,-2.91658 -3.1262,-10.35621 -4.9665,-16.53251 -1.8403,-6.17629 -3.9514,-12.91407 -4.6912,-14.97284 -0.7398,-2.05876 -2.0685,-6.83135 -2.9526,-10.60576 -0.8842,-3.7744 -2.5027,-10.51218 -3.5967,-14.97284 -1.0941,-4.46066 -2.3106,-10.30247 -2.7036,-12.9818 -0.4924,-3.35768 -2.176,-6.36263 -5.418,-9.66996 -2.587,-2.63915 -5.148,-4.79844 -5.691,-4.79844 -0.5431,0 -2.2049,-1.26334 -3.693,-2.80741 -4.7177,-4.89511 -10.6147,-9.66996 -11.9425,-9.66996 -0.7053,0 -1.0012,1.26333 -0.6576,2.80741 0.3436,1.54407 1.501,7.58 2.572,13.41317 3.2914,17.92608 5.6829,28.67761 10.0114,45.00981 7.1896,27.12768 5.7377,24.59903 19.1399,33.33285 6.5419,4.26314 12.8653,7.75116 14.0521,7.75116 1.9608,0 2.0099,-0.48382 0.5373,-5.30288 z m -26.1966,-105.43374 c -1.3842,-7.66608 -3.1149,-33.11761 -3.8818,-57.08395 -0.5431,-16.9707 -1.2085,-23.45025 -2.7229,-26.51441 -1.1023,-2.23032 -2.4218,-4.05514 -2.9323,-4.05514 -0.5104,0 -3.9255,-3.93037 -7.589,-8.73416 -3.6635,-4.80378 -7.0324,-8.73415 -7.4865,-8.73415 -3.3383,0 -1.5957,88.0522 1.8249,92.20574 3.0754,3.73442 20.2641,17.5003 21.9094,17.54659 1.313,0.0369 1.5219,-1.06498 0.8782,-4.63052 z"
       id="path6" />
    <path
       style="fill:#000000;stroke-width:1.24774"
       d="m 1192.4619,1029.1332 c -0.8235,-0.8235 -1.4999,-2.0869 -1.503,-2.8074 -0.01,-1.2964 -6.1161,-17.789 -9.2687,-25.0172 -0.8979,-2.05872 -4.1904,-11.32317 -7.3166,-20.58761 -10.7,-31.70897 -16.6685,-54.11922 -22.0987,-82.97449 -0.7749,-4.11753 -2.2974,-11.69753 -3.3833,-16.84444 -1.0859,-5.14692 -2.4132,-13.2884 -2.9496,-18.09218 -0.5364,-4.80379 -1.9074,-16.31416 -3.0468,-25.5786 -1.6053,-13.0528 -1.9486,-23.86601 -1.525,-48.03786 0.565,-32.24265 2.4378,-49.72585 7.248,-67.66341 1.3304,-4.96088 2.4188,-9.86205 2.4188,-10.8915 0,-1.02943 1.109,-5.39275 2.4644,-9.69626 1.3554,-4.3035 3.0529,-10.17897 3.7722,-13.05658 1.1541,-4.61672 2.4173,-5.97406 10.7414,-11.54156 5.1885,-3.47025 9.721,-6.30954 10.0722,-6.30954 0.3513,0 2.3018,-1.18422 4.3344,-2.63159 4.8111,-3.42578 5.8071,-2.20977 2.9348,3.58306 -6.0932,12.28887 -17.0657,46.46252 -14.9182,46.46252 1.0405,0 12.7673,-8.3023 21.1619,-14.98207 5.7166,-4.54881 8.1579,-7.4018 8.7877,-10.26957 0.7793,-3.54778 3.8604,-10.74533 6.8167,-15.92367 0.5877,-1.02938 3.0946,-5.89427 5.5709,-10.81085 2.4763,-4.91659 5.3197,-9.61756 6.3186,-10.44661 0.999,-0.82904 1.8163,-1.97515 1.8163,-2.5469 0,-1.39684 5.8792,-9.98805 8.5166,-12.44513 2.4201,-2.25466 35.661,-18.55265 58.2373,-28.55367 2.745,-1.21601 7.5176,-3.3701 10.6058,-4.78687 5.4617,-2.50572 26.7128,-10.68105 39.3037,-15.12023 16.3043,-5.74842 19.009,-6.63599 23.0831,-7.57497 2.4019,-0.55357 6.8937,-1.88532 9.9819,-2.95944 7.9475,-2.76429 21.1367,-6.37538 34.9366,-9.56528 6.5194,-1.50699 14.6609,-3.50221 18.0922,-4.43382 10.2065,-2.77113 25.7919,-5.75063 26.4802,-5.0623 0.3523,0.35233 -0.9697,0.99219 -2.9379,1.42193 -4.4036,0.96148 -17.4638,5.06636 -26.6617,8.37984 -17.315,6.23767 -20.9292,7.6058 -25.9239,9.81331 -2.9349,1.29716 -6.1464,2.35848 -7.1365,2.35848 -0.9901,0 -3.7996,1.12296 -6.2433,2.49547 -2.4436,1.37251 -5.0662,2.49548 -5.828,2.49548 -3.4106,0 -44.8773,20.63463 -58.349,29.03556 -18.6949,11.65817 -38.6222,28.63095 -50.1439,42.70929 -3.3698,4.11753 -6.9598,8.37575 -7.9779,9.4627 -1.018,1.08695 -1.8509,2.63102 -1.8509,3.43127 0,0.80025 -0.4976,1.455 -1.1056,1.455 -0.6081,0 -2.0834,2.10556 -3.2786,4.67902 -1.1951,2.57345 -2.8296,5.52123 -3.6322,6.55061 -3.3614,4.3111 -10.914,27.18729 -13.1822,39.92758 -1.4255,8.00713 -1.5486,8.18963 -9.6749,14.34897 -4.527,3.43127 -9.0629,7.06588 -10.0797,8.07691 -1.0168,1.01101 -5.2728,4.56973 -9.4577,7.90827 -6.0478,4.82463 -7.7862,7.0075 -8.4728,10.63913 -1.3256,7.01095 -1.1578,12.67939 0.3754,12.67939 1.813,0 19.0663,-14.30515 27.526,-22.8225 l 6.6514,-6.69676 0.077,23.18186 c 0.066,20.12548 1.7926,43.51193 3.8392,52.01514 0.4337,1.80188 -0.6083,3.9642 -3.3072,6.86255 -2.1672,2.32746 -7.3816,8.44284 -11.5875,13.58975 -4.2059,5.14692 -7.9496,9.63877 -8.3194,9.9819 -0.3698,0.34312 -2.1574,2.86979 -3.9724,5.61481 -2.9303,4.43196 -3.1998,5.72259 -2.406,11.52351 0.4916,3.59291 1.2168,6.85546 1.6114,7.25011 0.8492,0.8492 7.2209,-5.26839 7.2209,-6.93294 0,-0.63091 1.123,-1.74811 2.4955,-2.48266 1.3725,-0.73454 2.4955,-2.15799 2.4955,-3.16323 0,-1.00524 0.4932,-1.82771 1.096,-1.82771 0.6028,0 3.5506,-3.22852 6.5506,-7.17449 3,-3.94596 6.1063,-7.8663 6.9029,-8.71187 0.7965,-0.84557 1.7023,-2.24927 2.0127,-3.11934 1.0503,-2.94355 2.2001,-0.10998 3.9677,9.77804 2.7046,15.12907 9.3642,41.33847 13.4412,52.89844 3.68,10.43425 3.5035,16.16838 -0.6553,21.29432 -3.9202,4.83196 -4.9987,6.24742 -12.7706,16.76165 -3.0436,4.11753 -6.2926,8.32864 -7.2201,9.35802 -3.3174,3.68205 -3.4388,5.03877 -0.9535,10.65724 2.2571,5.10262 2.783,5.55384 5.0557,4.33756 1.395,-0.74662 2.538,-1.75885 2.5398,-2.24939 0.01,-1.74989 24.4517,-26.55435 25.317,-25.68905 0.4852,0.4852 0.8806,1.7712 0.8787,2.85777 0,1.71769 1.8906,6.19948 6.6337,15.70069 0.6852,1.37251 1.631,3.33769 2.1019,4.36707 0.4709,1.02939 2.0693,4.39828 3.5519,7.48642 1.4826,3.08815 2.6922,6.1763 2.688,6.86256 -0.01,1.17348 12.0053,26.26414 20.1615,42.11114 l 3.6926,7.1745 h -30.4462 -30.4463 l -1.9557,-4.0552 c -1.0757,-2.2303 -3.2233,-6.8625 -4.7724,-10.2938 -4.85,-10.7424 -7.2216,-14.9803 -8.259,-14.7583 -1.6512,0.3533 -12.8485,23.2665 -12.8524,26.2998 0,2.7099 -0.4067,2.8075 -11.6076,2.8075 -7.3616,0 -12.1513,-0.5474 -13.1012,-1.4973 z m 21.0324,-25.0172 c 1.2881,-1.544 2.3732,-3.6496 2.4113,-4.67896 0.038,-1.02939 1.1672,-3.27531 2.5092,-4.99095 1.342,-1.71564 2.4525,-3.63662 2.4677,-4.26883 0.015,-0.63222 0.9601,-2.17965 2.0995,-3.43873 1.932,-2.13481 1.9209,-2.7727 -0.1648,-9.45627 -1.2302,-3.94187 -3.2854,-9.32566 -4.5673,-11.96396 -1.2818,-2.63831 -2.3306,-5.7156 -2.3306,-6.83843 0,-1.12284 -1.0552,-4.85977 -2.345,-8.30431 -1.2898,-3.44454 -3.5105,-10.19317 -4.935,-14.99696 -1.4245,-4.80379 -3.2177,-10.83189 -3.9847,-13.39579 -2.6112,-8.72793 -3.6742,-8.04625 -12.0593,7.73337 -1.6549,3.11433 -3.541,6.19583 -4.1914,6.84777 -1.6013,1.60514 -1.4913,7.23946 0.2249,11.52272 0.774,1.93189 1.852,5.47769 2.3954,7.87959 0.9943,4.39455 6.7534,22.18233 8.6856,26.82633 0.571,1.37251 2.5246,6.96217 4.3414,12.42148 1.8168,5.45933 3.579,10.37223 3.9161,10.91773 1.0768,1.7423 3.1182,1.0716 5.527,-1.8158 z m -24.7251,-92.37899 c 10.1605,-14.53471 10.2923,-14.87171 8.7359,-22.32877 -7.4529,-35.70684 -7.297,-34.83385 -9.6383,-53.98565 -1.0864,-8.8867 -2.1912,-16.37356 -2.455,-16.63744 -0.4414,-0.44138 -2.1868,2.16053 -14.2195,21.19781 l -4.1757,6.60634 2.0974,13.7251 c 2.0094,13.14895 4.3568,24.7396 8.8444,43.67079 1.1387,4.80378 2.3487,10.27823 2.689,12.16543 0.3402,1.8872 1.0729,3.43127 1.6282,3.43127 0.5553,0 3.4774,-3.53019 6.4936,-7.84488 z m -12.298,-101.83752 9.5025,-12.98281 v -23.62942 c 0,-18.3587 0.5375,-26.31715 2.4098,-35.67892 2.26,-11.29963 3.0443,-16.87585 2.7192,-19.33141 -0.1553,-1.17296 -14.8981,10.09082 -20.8721,15.94666 -3.7887,3.71375 -3.9263,4.24942 -5.3065,20.65707 -2.3525,27.96478 -1.6372,72.01029 1.1206,69.00776 0.5083,-0.55336 5.2002,-6.84838 10.4265,-13.98893 z"
       id="path7" />
  </g>
</svg>
