<svg xmlns="http://www.w3.org/2000/svg" id="svg1" width="1516" height="1516" fill="currentColor" viewBox="0 0 1516 1516"><g id="g7"><path id="path2" d="M39.814 1191.9c.44-1.887 1.594-8.204 2.563-14.037 2.01-12.095 7.08-37.863 7.564-38.44.178-.212 2.417.49 4.977 1.56 2.56 1.069 5.568 1.947 6.685 1.951 1.118 0 3.435.728 5.15 1.608 1.717.88 5.928 2.636 9.359 3.9 8.985 3.313 24.594 10.749 27.092 12.905 3.772 3.259 5.538 1.085 6.372-7.843.874-9.355-.48-13.37-5.467-16.216-7.389-4.217-18.69-9.214-26.75-11.827-24.856-8.059-24.605-7.852-21.21-17.47 1.029-2.919 1.87-7.228 1.87-9.578s.77-5.788 1.71-7.641 2.1-6.177 2.576-9.608 1.371-7.923 1.99-9.982c1.782-5.934 7.596-29.392 8.814-35.56.61-3.089 1.918-7.58 2.908-9.983.99-2.401 2.136-6.332 2.546-8.734s1.484-5.338 2.386-6.524c1.548-2.039 2.008-2.026 8.382.23 3.71 1.314 9.271 3.803 12.36 5.532s9.545 5.107 14.349 7.507c4.803 2.399 10.418 5.509 12.477 6.91 2.059 1.403 4.332 2.553 5.052 2.558 1.926.012 4.306-7.492 4.306-13.574 0-4.366-.665-5.855-3.788-8.482-6.064-5.103-12.397-9.13-14.36-9.13-.999 0-1.816-.5-1.816-1.112s-2.386-2.055-5.303-3.208c-2.916-1.152-9.683-4.161-15.038-6.686l-9.735-4.59.793-4.367c.435-2.402 1.535-6.052 2.443-8.11.908-2.06 2.028-5.428 2.488-7.487s1.59-5.428 2.508-7.486c.919-2.06 1.945-5.428 2.28-7.487.336-2.059 3.51-11.885 7.054-21.835 3.543-9.95 6.876-19.777 7.407-21.836s1.895-5.54 3.034-7.736 2.07-4.883 2.07-5.97c0-1.088.952-3.502 2.117-5.365a873 873 0 0 0 2.334-3.747c.434-.719 6.778 2.66 6.778 3.61 0 .924 2.803 2.696 9.982 6.307 1.715.863 5.724 3.698 8.907 6.3s6.372 4.73 7.085 4.73 2.04.72 2.946 1.6c2.598 2.522 9.866 7.453 10.255 6.958.194-.246 1.314-3.96 2.49-8.253 2.507-9.15 2.596-8.956-8.686-19.085-7.508-6.742-13.468-10.815-26.381-18.028-4.47-2.498-6.512-4.367-6.133-5.615 1.618-5.33 3.797-11.128 5.86-15.597 1.267-2.745 2.67-6.535 3.116-8.422s1.312-3.431 1.924-3.431 1.112-.824 1.112-1.83.924-3.954 2.052-6.55a983 983 0 0 0 3.631-8.465c2.687-6.37 7.134-16.128 8.246-18.092a45 45 0 0 0 1.857-3.743c3.974-9.327 16.657-36.43 17.485-37.366.271-.307 1.74.703 3.263 2.243 10.714 10.831 32.95 31.314 34.027 31.344 1.946.053 6.799-10.684 6.799-15.044 0-3.115-2.042-5.809-11.56-15.252-6.357-6.307-13.985-14.108-16.95-17.336l-5.39-5.868 2.156-4.114a346 346 0 0 0 3.224-6.297c.588-1.2 1.59-3.166 2.226-4.367s1.483-3.026 1.881-4.055c.399-1.03 3.258-6.364 6.355-11.854s6.43-11.71 7.405-13.824 2.65-4.569 3.718-5.456c1.07-.887 1.944-2.199 1.944-2.915s2.527-5.356 5.615-10.31c3.088-4.956 5.614-9.635 5.614-10.4 0-.764.44-1.39.979-1.39s2.644-3.32 4.679-7.377c5.874-11.71 6.53-11.672 15.79.9 4.395 5.964 9.501 13.09 11.347 15.836 1.846 2.745 4.724 6.675 6.396 8.734 2.862 3.523 3.095 3.597 3.973 1.248.512-1.373 1.96-3.835 3.215-5.472 4.793-6.246 3.126-10.519-14.993-38.434-3.669-5.652-6.476-10.738-6.239-11.301s4.082-6.23 8.542-12.591c4.461-6.362 8.676-12.563 9.366-13.78.69-1.219 2.095-3.085 3.12-4.149 1.025-1.063 2.706-3.198 3.735-4.744 2.171-3.26 9.186-12.235 11.696-14.963.947-1.03 4.67-5.802 8.274-10.606s7.322-9.183 8.263-9.732c.942-.549 1.713-1.497 1.713-2.106 0-1.83 7.352-9.3 8.26-8.391.463.462 2.421 5.484 4.352 11.159 7.522 22.104 10.664 30.138 11.954 30.568.739.246 3.497-2.488 6.131-6.075 6.333-8.628 6.3-8.871-5.642-42.048l-3.745-10.404 17.107-17.082c19.156-19.13 32.432-31.359 34.04-31.359.589 0 1.672-1.123 2.407-2.495.734-1.373 1.806-2.496 2.382-2.496s3.184-1.957 5.796-4.35 4.932-4.167 5.155-3.944c.224.224 1.595 9.62 3.047 20.883s3.056 20.932 3.564 21.49 3.909-1.731 7.557-5.085l6.632-6.1-.287-7.112c-.159-3.913-1.091-12.012-2.073-17.998-2.774-16.927-2.635-17.648 4.458-23.05 3.379-2.574 6.716-4.68 7.415-4.68.7 0 1.272-.59 1.272-1.311s1.927-2.116 4.282-3.1 4.656-2.394 5.112-3.133 2.04-1.886 3.517-2.55 7.178-3.952 12.668-7.31c8.124-4.966 21.222-12.072 39.136-21.229 3.48-1.779 12.98-5.942 19.508-8.549 15.954-6.37 19.86-7.718 22.376-7.718 2.692 0 2.697.05 1.072 10.918-.897 6.004-2.47 13.52-3.494 16.7s-1.862 6.189-1.862 6.686c0 1.512 6.162-.536 11.217-3.727 5.207-3.287 5.566-4.112 10.195-23.401l2.919-12.165 5.614-1.85c9.011-2.969 40.537-7.903 56.601-8.858l14.802-.88-.929 2.986c-.51 1.642-1.879 4.389-3.041 6.105-2.468 3.642-7.541 14.442-7.541 16.054 0 .61-.836 1.802-1.858 2.65-2.806 2.33-.899 4.002 3.536 3.102 13.213-2.684 12.443-2.04 19.526-16.295 3.607-7.258 7.438-13.534 8.514-13.947 2.962-1.136 38.059 1.722 50.449 4.109l10.918 2.103.005 7.662c.003 4.215.858 16.647 1.902 27.627a17804 17804 0 0 1 3.112 33.065c.668 7.205 2.046 17.593 3.064 23.083 1.017 5.49 1.851 11.666 1.854 13.725.007 6.213 7.195 44.288 12.602 66.754 1.24 5.147 2.568 10.85 2.953 12.675l.7 3.317-5.922-1.584c-3.257-.87-10.133-3.12-15.28-5-12.66-4.621-18.508-6.289-19.296-5.5-.786.786 2.863 13.61 4.415 15.517.597.733 10.021 4.3 20.943 7.928 21.82 7.246 21.661 7.121 23.872 18.723.598 3.138 1.426 6.582 1.84 7.654.51 1.319-2.79 5.707-10.207 13.572-6.028 6.393-14.47 15.342-18.757 19.886-4.288 4.545-7.797 8.685-7.799 9.2 0 .514-.508.935-1.127.935s-3.168-6.597-5.665-14.66c-2.497-8.064-5.136-16.346-5.864-18.405s-1.613-5.006-1.966-6.55c-.917-4.004-3.265-3.47-5.48 1.247-1.048 2.23-3.972 7.892-6.499 12.581-2.527 4.69-4.594 9.337-4.594 10.328s1.48 6.418 3.287 12.061c8.508 26.56 8.085 24.5 5.377 26.191-1.334.833-2.425 1.856-2.425 2.273s-2.337 3.359-5.194 6.538l-5.194 5.78-2.717-5.903c-4.145-9.002-10.5-28.052-13-38.967-.55-2.402-1.849-6.613-2.886-9.358-3.082-8.153-9.656-33.271-12.9-49.286a6052 6052 0 0 0-3.054-14.973c-5.395-26.225-9.428-52.911-13.095-86.651-1.115-10.257-2.505-19.544-3.09-20.636-.907-1.695-2.69-1.856-12.185-1.097-11.911.951-29.453 4.67-39.605 8.395a2072 2072 0 0 1-10.606 3.858c-12.198 4.382-15.405 5.743-28.378 12.04-14.406 6.995-28.908 15.416-33.466 19.434-1.416 1.249-2.944 2.27-3.394 2.27-.877 0-20.036 14.067-23.648 17.362a765 765 0 0 0-4.367 4.023c-1.21 1.125-4.726 4.11-7.814 6.636-13.225 10.813-41.142 39.654-57.008 58.895-2.19 2.655-9.04 11.557-15.223 19.783l-15.462 20.57c-2.321 3.089-5.278 7.44-6.57 9.67-1.293 2.231-2.791 4.056-3.33 4.056-.538 0-.978.522-.978 1.16 0 1-1.763 3.935-10.942 18.212a933 933 0 0 0-4.99 7.927 566 566 0 0 1-6.215 9.726c-1.544 2.343-2.808 5.078-2.808 6.077s-.496 1.816-1.102 1.816-1.427.983-1.824 2.184c-.397 1.2-2.681 5.552-5.075 9.67-4.485 7.713-11.038 20.125-18.116 34.313-2.225 4.46-4.646 9.233-5.38 10.605-1.999 3.74-9.677 20.026-15.294 32.441-4.345 9.603-7.396 16.535-8.786 19.964-.834 2.059-4.159 9.92-7.387 17.469-4.83 11.293-13.805 35.506-21.968 59.267-.826 2.402-2.465 6.894-3.645 9.982-2.293 6.007-5.212 15.084-10.633 33.065-1.862 6.176-4.164 13.347-5.116 15.934s-1.726 5.956-1.719 7.486-1.064 6.151-2.38 10.269c-1.315 4.117-3.033 10.013-3.817 13.101-3.254 12.824-4.082 15.975-6.232 23.707-2.102 7.564-3.678 14.416-9.9 43.047-4.137 19.038-10.766 53.901-14.946 78.607-1.394 8.236-3.468 20.027-4.61 26.203s-2.549 15.84-3.124 21.474-1.585 12.372-2.242 14.972c-.657 2.601-1.562 7.396-2.01 10.656l-.814 5.927h-27.624l.804-4.68c.441-2.573 1.347-10.19 2.013-16.928s1.532-12.77 1.925-13.407c.393-.636 1.474-6.914 2.402-13.952 1.656-12.555 8.323-50.647 10.046-57.403.642-2.513.413-3.431-.853-3.431-.95 0-3.426 1.544-5.5 3.431s-6.832 5.918-10.572 8.958c-11.58 9.41-17.406 15.474-17.406 18.115 0 1.395-1.104 7.875-2.452 14.402-2.953 14.29-7.231 37.423-8.194 44.307-.385 2.745-1.298 8.5-2.03 12.79l-1.332 7.798H39.013Zm116.628-117.287c7.93-6.005 14.92-11.27 15.534-11.701.613-.432 1.56-2.958 2.102-5.615.544-2.657 2.79-12.692 4.994-22.3 2.204-9.607 4.438-19.433 4.966-21.835.527-2.402 3.325-13.53 6.218-24.728s4.917-20.704 4.498-21.123-2.299.36-4.178 1.73c-1.878 1.37-4.258 2.85-5.287 3.289-1.03.439-6.29 4.05-11.69 8.026-7.904 5.818-10.137 8.201-11.446 12.218-2.785 8.55-16.05 63.988-19.255 80.48-.734 3.774-1.669 8.125-2.077 9.67-.408 1.543-.304 2.807.23 2.807.536 0 7.462-4.913 15.391-10.918m25.728-117.506c1.372-.631 6.411-3.883 11.198-7.226 6.89-4.811 8.928-6.977 9.782-10.39.593-2.372 2.073-7.4 3.287-11.175a1865 1865 0 0 0 5.105-16.22c1.592-5.147 6.098-18.623 10.011-29.946 9.405-27.21 9.879-28.698 9.143-28.698-.966 0-14.459 6.803-23.32 11.759-6.093 3.407-8.254 5.382-9.306 8.505-.753 2.237-3.681 10.524-6.507 18.416-10.299 28.759-22.829 70.37-21.57 71.63.33.33 2.643-.774 5.14-2.453 2.498-1.68 5.664-3.57 7.037-4.202m41.799-116.462c5.147-2.396 10.53-4.714 11.96-5.152 2.522-.77 4.44-4.343 10.628-19.785 2.484-6.197 6.421-15.127 8.81-19.977 5.053-10.266 20.989-47.523 20.524-47.987-.325-.326-5.263 1.186-10.972 3.36-5.71 2.172-12.217 4.502-14.462 5.177-3.539 1.064-10.268 8.812-10.268 11.823 0 .672-4.546 11.104-11.91 27.328-10.422 22.96-19.283 45.635-19.283 49.34 0 2.763.42 2.647 14.973-4.127m41.412-104.979c4.59-.96 11.127-2.67 14.526-3.799l6.179-2.052 15.42-27.016c8.48-14.86 16.823-29.324 18.538-32.144a8914 8914 0 0 0 6.703-11.04c1.97-3.253 3.246-6.25 2.834-6.662-.862-.862-18.023 1.711-24.51 3.675-4.67 1.414-6.12 2.809-10.04 9.663-1.372 2.402-3.896 6.613-5.607 9.358s-3.654 6.114-4.316 7.487c-.663 1.372-2.587 4.741-4.276 7.486-10.484 17.038-26.254 46.79-24.802 46.79.553 0 4.76-.785 9.351-1.746m62.774-97.443c4.804-.45 9.998-1.118 11.543-1.484 2.606-.617 25.265-28.914 25.265-31.552 0-.59.535-1.262 1.19-1.49.654-.23 2.76-2.451 4.679-4.939s8.178-10.244 13.91-17.237 10.137-12.998 9.792-13.344-6.961-.108-14.7.53c-15.618 1.285-13.243-.037-25.216 14.04-15.851 18.635-41.279 54.33-40.082 56.267.4.647 1.663.918 2.806.602s6.009-.943 10.813-1.393m347.631-27.768c1.77-3.26 5.03-9.24 7.244-13.291 4.229-7.739 4.224-7.62.803-20.086-3.886-14.161-11.944-57.045-11.957-63.634-.004-2.06-.53-4.569-1.168-5.577-1.466-2.32-4.905 1.487-13.261 14.678l-5.856 9.244 2.746 13.91c7.588 38.432 15.492 70.683 17.324 70.683.499 0 2.355-2.667 4.125-5.927m-251.132-71.327c8.688-8.177 20.66-18.705 26.602-23.395l10.805-8.528 1.987-10.606c1.093-5.833 1.986-12.732 1.984-15.331l-.003-4.726-7.174 5.004c-19.18 13.377-37.677 28.933-54.458 45.798-16.72 16.805-23.214 23.871-23.214 25.26 0 .94 4.496 1.391 13.837 1.391h13.837zm234.604-41.576 8.883-10.9-1.198-14.679c-.66-8.072-1.794-22.527-2.522-32.12-.728-9.594-1.86-17.98-2.515-18.636-.656-.656-10.606-1.42-22.11-1.697-16.654-.401-24.353.013-37.763 2.035-15.386 2.32-17.08 2.835-19.565 5.951-4.01 5.026-11.049 18.932-10.076 19.905.462.462 6.9-.33 14.305-1.76 13.05-2.52 39.146-5.243 49.96-5.214 4.947.013 5.304.245 5.316 3.445.02 5.258 2.383 32.307 3.679 42.111a890 890 0 0 1 1.95 15.98c.437 3.985 1.24 7.073 1.783 6.863.544-.211 4.987-5.289 9.873-11.284m-173.039-9.375c5.065-3.363 8.165-5.314 16.307-10.263 6.028-3.665 38.509-19.574 42.111-20.626 4.983-1.456 7.295-4.212 12.54-14.947 4.894-10.018 5.828-13.12 3.95-13.12-1.432 0-15.218 4.825-19.798 6.929-2.162.993-4.274 1.806-4.692 1.806-2.672 0-37.682 17.136-47.05 23.029l-7.013 4.41-.82 7.804c-.45 4.292-1.149 10.19-1.551 13.106s-.376 5.303.059 5.303c.434 0 3.115-1.544 5.957-3.431" style="fill:#000;stroke-width:1.24774"/><path id="path3" d="M215.814 1189.58c.474-3.162 1.644-13.129 2.6-22.147.955-9.018 3.128-26.222 4.83-38.231l4.508-31.818c.778-5.49 2.492-14.754 3.808-20.587 1.317-5.834 2.406-12.29 2.422-14.35.015-2.058 1.137-7.916 2.493-13.016 1.357-5.1 2.467-10.548 2.467-12.105s.85-6.087 1.89-10.066 2.475-10.885 3.187-15.346c.712-4.46 2.062-10.637 3-13.725 2.35-7.734 5.54-20.633 6.897-27.877.623-3.324 1.694-6.72 2.38-7.546s1.79-4.565 2.452-8.307c1.357-7.66 7.21-29.186 8.768-32.25.56-1.101 1.375-3.873 1.808-6.158s1.589-5.935 2.566-8.11c.978-2.176 2.073-5.64 2.432-7.699.536-3.067 5.445-17.508 8.695-25.579.415-1.029 1.557-4.117 2.538-6.862s2.489-6.956 3.352-9.358 2.564-7.175 3.78-10.606c2.45-6.913 8.051-21.506 10.515-27.392.875-2.09 2.844-6.89 4.375-10.664s3.797-9.108 5.033-11.853 3.732-8.36 5.544-12.478c5.15-11.698 7.16-16.07 8.32-18.092.592-1.03 1.692-3.275 2.447-4.99.755-1.717 1.814-3.962 2.353-4.992s3.895-7.767 7.456-14.973c3.56-7.205 6.982-13.943 7.602-14.973.62-1.029 2.174-3.836 3.455-6.238l5.32-9.982c1.647-3.088 3.274-5.896 3.617-6.239.822-.822 3.74-5.93 6.059-10.606 1.02-2.058 2.186-4.024 2.59-4.367.945-.804 6.859-10.037 7.991-12.477 1.116-2.403 5.795-9.553 15.178-23.19 4.117-5.985 8.047-11.772 8.734-12.86 1.667-2.643 31.483-39.408 36.897-45.497 14.417-16.214 53.473-53.057 61.362-57.885 1.887-1.155 3.431-2.54 3.431-3.079 0-.538.815-.979 1.81-.979s2.258-.702 2.807-1.56c.875-1.366 10.713-8.15 22.21-15.313 2.058-1.283 8.796-4.807 14.972-7.832s12.634-6.231 14.35-7.124c7.158-3.728 36.64-13.039 41.397-13.074 1.638-.012 2.247 1.546 2.798 7.16 2.045 20.843 7.968 58.326 13.259 83.91 1.348 6.519 2.448 12.884 2.444 14.144s1.08 6.314 2.408 11.23a1280 1280 0 0 1 5.062 19.544c2.492 9.982 5.738 22.102 9.356 34.937.87 3.088 5.1 17.213 9.401 31.39l7.82 25.774-4.862 6.418c-9.12 12.039-10.25 13.21-11.493 11.906-1.616-1.694-14.955-42.374-24.47-74.627-1.242-4.211-2.74-7.05-3.574-6.77-1.429.475-3.856 4.476-10.097 16.639-3.793 7.392-3.808 7.54-1.546 15.238a5839 5839 0 0 1 4.434 15.207c5.057 17.426 7.935 26.784 12.751 41.46 2.642 8.05 4.803 16.067 4.803 17.818 0 2.83-1.706 5.508-12.435 19.527-1.396 1.824-2.538 3.93-2.538 4.679s-.429 1.362-.953 1.362c-.525 0-2.342 2.246-4.038 4.991s-3.514 4.991-4.038 4.991-.953.755-.953 1.678-1.123 2.695-2.495 3.937-2.508 2.873-2.524 3.624c-.015.752-1.088 2.747-2.385 4.434l-2.357 3.068-2.754-6.187c-5.49-12.337-6.103-13.802-9.117-21.784-5.086-13.469-5.107-14.262-.525-19.596 7.037-8.194 8.32-9.814 12.149-15.34 1.664-2.402 3.335-4.648 3.713-4.991s2.285-2.98 4.239-5.86c3.516-5.185 3.537-5.326 2.068-14.034-.816-4.837-2.01-9.12-2.654-9.519-1.311-.81-5.604 3.849-6.802 7.383-.863 2.544-5.109 8.82-13.638 20.158-3.097 4.118-5.974 8.47-6.393 9.67-1.218 3.491-2.452 2.566-4.16-3.12-.878-2.916-2.872-9.232-4.433-14.036-2.865-8.818-6.305-20.983-9.953-35.195l-1.988-7.745 8.344-10.971c4.588-6.035 8.682-11.252 9.097-11.595 3.147-2.603 11.357-16.927 11.357-19.817 0-4.265-2.35-11.377-3.76-11.377-.97 0-7.716 8.028-13.085 15.57-1.372 1.928-3.478 4.392-4.679 5.475-1.2 1.083-2.183 2.335-2.183 2.783s-1.907 2.895-4.237 5.439l-4.237 4.625-1.229-4.157c-.676-2.286-2.472-9.771-3.992-16.634s-3.776-16.407-5.014-21.211c-4.474-17.359-7.412-31.345-8.192-38.992-.52-5.11-1.348-7.798-2.399-7.798-2.356 0-10.43 9.383-11.4 13.25-1.118 4.453.224 26.374 2.722 44.457l2.026 14.661-5.414 6.551c-2.978 3.603-6.024 7.112-6.769 7.798-1.704 1.571-15.377 19.95-18.565 24.955-1.31 2.059-2.983 4.376-3.715 5.15s-2.138 2.573-3.125 4c-1.964 2.836-1.734 3.031-7.857-6.654-.868-1.373-1.903-2.777-2.3-3.12s-1.557-2.308-2.577-4.367a356 356 0 0 0-3.172-6.238c-3.43-6.511-6.63-14.655-6.63-16.878 0-3.95-4.056-2.902-7.32 1.89-2.019 2.965-2.752 5.428-2.318 7.79 1.025 5.593 13.5 33.863 16.814 38.107.658.843 1.817 3.378 2.576 5.634 1.513 4.495.959 6.49-4.056 14.614-2.852 4.619-12.517 23.685-17.552 34.624-1.184 2.574-2.51 4.647-2.947 4.608-1.038-.093-9.34-10.876-16.265-21.126-9.186-13.596-9.625-14.29-10.465-16.547-1.21-3.255-4.334-2.64-6.335 1.248-5.357 10.415-5.672 12.148-3.21 17.65 2.442 5.452 6.708 12.32 19.012 30.607 7.136 10.607 7.42 11.319 5.968 14.973-.839 2.11-3.249 8.89-5.355 15.066s-4.875 13.61-6.153 16.519-2.322 6.16-2.322 7.224-1.123 4.136-2.495 6.826-2.496 5.605-2.496 6.477-1.07 4.403-2.378 7.848c-3.708 9.761-13.842 41.14-13.842 42.858 0 .847-.83 3.528-1.845 5.956l-1.845 4.415-4.082-3.825c-2.245-2.104-4.491-3.829-4.991-3.832s-7.401-6.533-15.336-14.512c-7.934-7.978-14.822-14.11-15.306-13.626-.484.485-1.08 5.27-1.323 10.633-.525 11.547-1.337 10.292 21.177 32.706l14.65 14.583-1.144 7.253c-.628 3.989-1.994 10.322-3.035 14.075-1.041 3.752-1.893 8.058-1.893 9.569 0 1.51-.867 6.128-1.925 10.262-1.835 7.16-2.77 12.485-7.867 44.75-1.217 7.706-2.547 14.344-2.956 14.752-.584.585-20.734-12.047-26.556-16.648-.686-.542-3.774-2.722-6.862-4.844s-6.685-5.046-7.992-6.499c-3.324-3.692-5.291-3.293-6.201 1.259-1.936 9.68-1.08 12.92 5.147 19.47 7.465 7.855 26.038 22.797 28.335 22.797.37 0 1.691 1.016 2.934 2.259 1.242 1.243 3.572 3.179 5.177 4.303 2.89 2.024 2.903 2.147 1.429 13.025-.819 6.04-2.003 18.281-2.632 27.203-.629 8.921-1.996 24.643-3.039 34.936-1.043 10.294-1.907 22.226-1.921 26.515-.024 7.25-.223 7.798-2.833 7.79-1.544 0-4.398-.837-6.343-1.85-1.944-1.015-5.874-2.467-8.734-3.226-2.86-.76-12.022-4.7-20.362-8.755s-15.561-7.372-16.048-7.372c-1.128 0 .208 7.633 2.674 15.284 1.574 4.881 3.072 6.697 8.49 10.294 3.62 2.402 7.084 4.366 7.699 4.365s6.452 2.476 12.972 5.504 13.7 6.193 15.956 7.035c9.461 3.53 3.682 4.303-34.63 4.638l-37.808.33.832-5.32c.458-2.927 1.17-12.35 1.582-20.938l.75-15.617-7.343-9.338c-4.039-5.136-8.915-11.444-10.837-14.018-1.921-2.573-3.978-4.679-4.571-4.679s-1.44 4.352-1.884 9.67c-.443 5.319-1.894 17.436-3.225 26.927s-2.42 20.86-2.42 25.266v8.01h-28.981zm62.397-69.424c.464-4.976 1.349-12.415 1.967-16.533a18694 18694 0 0 1 9.193-60.224l1.798-11.563-4.89-7.777c-2.688-4.278-5.976-9.78-7.305-12.228-2.41-4.436-5.973-8.199-6.883-7.269-.263.27-1.358 5.262-2.433 11.096a1249 1249 0 0 1-3.87 19.963c-3.903 19.06-4.478 22.25-7.52 41.717-1.708 10.934-3.106 21.365-3.106 23.179 0 4.621 17.885 28.583 21.397 28.665.445.011 1.188-4.051 1.652-9.026m41.833-17.593c0-5.404-.686-7.603-3.601-11.542-4.678-6.319-18.591-19.897-19.48-19.01-.377.378-1.024 4.305-1.437 8.726-.71 7.614-.56 8.243 2.838 11.902 5.6 6.03 18.392 16.576 20.12 16.588 1.056.01 1.56-2.15 1.56-6.665m-23.253-96.575c.342-1.201 1.237-5.553 1.988-9.67.75-4.118 2.46-11.979 3.799-17.469 5.405-22.167 8.762-35.606 12.186-48.786l3.598-13.849-6.029-11.105c-3.316-6.108-6.377-12.111-6.804-13.34-1.029-2.966-3.376-2.05-4.39 1.712-.448 1.66-1.955 6.948-3.35 11.752a1541 1541 0 0 0-5.268 18.716c-1.503 5.49-3.786 13.32-5.073 17.399s-2.34 8.57-2.34 9.982c0 1.41-1.09 5.934-2.425 10.051-1.333 4.118-3.057 10.386-3.83 13.93-1.574 7.208-.593 10.104 6.755 19.95 2.127 2.85 4.823 6.92 5.992 9.046 2.383 4.331 4.263 4.94 5.191 1.68m46.96-35.182c0-4.852-.98-7.854-4.586-14.037-4.805-8.238-11.5-17.223-12.833-17.223-1.443 0-3.99 14.377-3.143 17.747.46 1.833 2.186 4.218 3.837 5.299 1.65 1.081 3 2.749 3 3.705 0 2.005 9.835 10.62 12.166 10.656 1.04.017 1.56-2.028 1.56-6.147m-17.002-81.482c1.057-2.916 5-14.567 8.761-25.89 3.763-11.323 8.05-23.676 9.526-27.45 1.477-3.775 3.426-9.109 4.332-11.854s2.539-7.078 3.63-9.63c1.09-2.551 1.983-6.093 1.983-7.87 0-3.27-9.928-25.547-11.385-25.547-.434 0-1.469 1.825-2.3 4.055s-2.25 5.46-3.156 7.175c-2.035 3.853-13.105 31.74-13.105 33.011 0 .509-.818 2.694-1.817 4.856-1 2.163-3.487 8.985-5.526 15.162-2.04 6.176-4.59 13.317-5.669 15.868-2.575 6.094-2.48 11.519.273 15.687 2.978 4.508 4.727 7.449 7.76 13.051 1.394 2.574 3.038 4.68 3.654 4.68.615 0 1.983-2.387 3.04-5.304m53.13-47.245c.039-3.935-.734-6.764-2.439-8.931-1.372-1.745-2.495-3.468-2.495-3.829 0-.36-1.76-3.487-3.911-6.948-3.646-5.864-6.071-7.183-6.071-3.302 0 .91-.928 4.528-2.062 8.04-1.918 5.938-1.918 6.545 0 8.664 1.134 1.253 2.062 2.693 2.062 3.2 0 1.036 5.403 8.61 9.286 13.015l2.56 2.904 1.507-3.528c.829-1.94 1.533-6.118 1.564-9.285m-9.522-67.546c3.143-7.035 9.203-19.528 13.467-27.763a5073 5073 0 0 0 13.985-27.229l6.232-12.256-1.928-6.46a463 463 0 0 1-3.48-12.386c-2.265-8.644-2.986-8.241-10.608 5.926-2.585 4.804-5.321 9.577-6.082 10.606-4.331 5.86-25.226 46.618-28.146 54.9-1.44 4.085-1.19 5.114 3.847 15.91 2.963 6.347 5.75 11.54 6.192 11.54.444 0 3.378-5.754 6.521-12.788m57.044-102.798c6.491-9.358 12.364-17.908 13.05-18.999s1.884-2.558 2.663-3.26 3.024-3.537 4.99-6.3 7.348-9.838 11.958-15.723l8.38-10.7-1.305-7.984c-.718-4.391-1.567-9.809-1.887-12.039-.778-5.43-2.776-5.056-7.661 1.433-2.24 2.976-5.617 7.029-7.504 9.007-3.59 3.766-17.82 21.258-22.111 27.181-1.373 1.895-3.338 4.508-4.367 5.807-1.03 1.3-3.276 4.365-4.991 6.812a602 602 0 0 1-7.175 9.94c-4.78 6.47-4.833 7.19-1.476 20.007 2.75 10.494 3.283 11.834 4.72 11.834.503 0 6.225-7.657 12.716-17.016m166.313-21.352c2.38-4.633 5.222-10.107 6.316-12.166 2.63-4.952 2.517-8.923-.595-21.061-4.86-18.954-5.976-23.85-7.996-35.087-2.633-14.645-4.23-20.588-5.533-20.588-.581 0-1.983 1.825-3.115 4.056-1.131 2.23-3.966 6.581-6.298 9.67-5.12 6.78-5.497 11.702-2.037 26.605 1.303 5.611 3.57 16.098 5.039 23.304 3.536 17.357 7.902 33.689 9.004 33.689.488 0 2.834-3.79 5.215-8.422m-99.581-60.8c6.66-6.16 14.29-12.877 16.957-14.927s4.85-4.168 4.85-4.707c0-.54.813-.981 1.809-.981.995 0 2.258-.77 2.807-1.712 2.27-3.895 25.24-18.664 36.686-23.588l4.494-1.934 1.584 10.81c.871 5.945 1.797 11.177 2.058 11.628.917 1.587 5.174-.44 6.53-3.108 1.594-3.142 6.036-10.247 9.357-14.97 2.176-3.094 2.217-4.205.69-18.42l-1.627-15.126-5.322.73c-7.03.963-31.33 12.894-45.092 22.14-2.951 1.982-5.6 3.604-5.885 3.604-1.827 0-27.954 20.956-36.489 29.267l-10.306 10.037 1.466 11.577c.806 6.367 1.883 11.42 2.395 11.23.51-.191 6.378-5.388 13.038-11.55" style="fill:#000;stroke-width:1.24774"/><path id="path4" d="M629.155 1022.062c-1.192-2.019-2.167-4.291-2.167-5.05 0-.76-1.05-3.762-2.335-6.67-2.06-4.669-5.79-13.416-10.77-25.254-.866-2.059-3.325-8.095-5.465-13.413l-7.78-19.34c-2.14-5.319-4.755-11.626-5.812-14.018-1.057-2.391-2.362-6.04-2.9-8.11s-2.134-7.078-3.546-11.13-2.568-8.31-2.568-9.458c0-2.872 24.756-51.142 26.241-51.166.365-.006 3.376 8.272 6.692 18.394 10.085 30.786 10.436 31.392 13.677 23.634.989-2.366 2.416-4.684 3.172-5.151 1.924-1.189 1.713-5.678-.566-12.088-2.252-6.33-4.68-16.463-8.278-34.528l-2.558-12.848 3.893-6.263c2.142-3.444 3.894-6.787 3.894-7.427 0-.641.477-1.165 1.06-1.165 1.11 0 8.921-11.923 8.921-13.615 0-.534 1.123-1.988 2.496-3.23s2.495-2.926 2.495-3.743 1.123-2.501 2.496-3.743 2.495-2.889 2.495-3.66c0-1.338 4.967-6.31 5.471-5.476 1.968 3.251 9.502 22.23 9.502 23.936 0 2.551 6.683 19.513 7.688 19.513.618 0 1.48-.983 1.912-2.184.434-1.2 1.82-3.674 3.08-5.495 2.94-4.248 2.9-10.099-.15-21.358-4.468-16.496-7.483-28.946-7.81-32.251-.339-3.405 2.424-9.833 4.225-9.833.57 0 1.037-.558 1.037-1.24 0-2.14 36.225-48.543 38.287-49.046.56-.136 1.947 3.402 3.083 7.863 1.136 4.46 2.638 9.794 3.337 11.853 4.294 12.651 6.474 20.305 6.463 22.698-.018 3.79 2.525 4.997 4.501 2.135.902-1.305 2.085-2.935 2.628-3.621 3.411-4.308 5.428-8.567 4.813-10.168-.391-1.02-2.136-9.257-3.876-18.303l-4.54-23.6c-1.373-7.145-1.37-7.156 2.846-11.915 2.322-2.62 7.31-8.365 11.084-12.766 6.598-7.695 19.62-21.774 33.337-36.045 4.508-4.691 6.704-6.231 7.142-5.009.666 1.865 2.203 13.317 4.64 34.57 1.729 15.086 2.646 15.577 9.8 5.252l4.756-6.863-1.06-14.972c-.583-8.235-1.096-19.942-1.14-26.015l-.08-11.04 5.927-5.625c3.26-3.093 10.363-9.634 15.785-14.537 5.422-4.902 11.405-10.317 13.296-12.033 1.89-1.715 9.789-8.453 17.552-14.973 7.763-6.519 15.422-13.116 17.019-14.66s3.3-2.823 3.783-2.842c.483-.018 3.686-2.54 7.118-5.603 3.43-3.063 6.62-5.575 7.085-5.581.466-.006 1.72-.885 2.787-1.952 1.068-1.068 6.863-5.555 12.879-9.972s11.759-8.737 12.763-9.6c1.004-.864 2.829-2.132 4.054-2.818 1.225-.687 6.462-4.196 11.637-7.799s9.667-6.55 9.983-6.55.574 10.387.574 23.083c0 25.088.229 25.787 6.51 19.964 1.85-1.716 3.885-3.12 4.522-3.12 4.372 0 7.57-17.918 7.683-43.047.022-4.803.465-9.402.984-10.218 1.142-1.796 9.94-7.874 11.398-7.874.571 0 1.765-.875 2.652-1.944s3.342-2.752 5.456-3.74c2.113-.988 5.527-2.893 7.586-4.232 2.058-1.34 7.954-4.81 13.1-7.712 5.148-2.902 9.64-5.601 9.983-5.999 1.277-1.48 13.915-7.792 14.477-7.23.321.321.01 9.22-.701 19.776-1.801 26.894-1.584 27.55 6.59 19.888 6.08-5.698 5.519-3.822 9.674-32.344 1.336-9.17 2.718-17.142 3.072-17.715.853-1.38 42.481-21.763 60.468-29.608 3.088-1.347 8.422-3.675 11.854-5.175 3.43-1.499 9.888-4.123 14.349-5.831 4.46-1.708 14.458-5.604 22.216-8.658s14.583-5.552 15.166-5.552c1.307 0-1.771 12.147-4.313 17.02-1.023 1.963-1.864 4.854-1.868 6.425 0 1.572-1.131 5.058-2.504 7.749s-2.495 5.924-2.495 7.187-.664 2.96-1.477 3.772c-2.539 2.54.143 3.37 4.334 1.342 2.203-1.066 6.64-3.124 9.86-4.573 4.563-2.053 6.126-3.54 7.092-6.74 2.475-8.208 9.79-27.973 12.735-34.405l3.016-6.59 15.597-4.77c23.511-7.191 48.57-14.247 56.02-15.773l4.24-.869-2.68 3.764c-1.473 2.07-2.68 4.682-2.68 5.804s-1.122 4.242-2.495 6.932-2.495 5.82-2.495 6.955-1.194 4.386-2.653 7.224c-4.415 8.591-4.834 9.47-4.834 10.135 0 1.37 7.122.396 12.212-1.67 5.866-2.382 7.471-4.564 13.9-18.9a2464 2464 0 0 1 7.713-17.006l3.515-7.647 10.964-2.524c16.776-3.863 36.44-7.583 43.726-8.272l6.56-.62-.811 3.373c-.447 1.856-2.135 5.896-3.753 8.979s-2.941 6.292-2.941 7.132c0 1.43-2.663 8.23-5.143 13.136-.603 1.192-1.096 2.736-1.096 3.432 0 1.689 5.448 1.601 11.406-.184 4.29-1.285 5.327-2.443 9.219-10.294 2.412-4.865 4.844-9.688 5.404-10.717 4.045-7.433 5.289-9.874 7-13.74l1.941-4.382 20.883-2.75c11.486-1.514 25.094-3.064 30.241-3.445 5.147-.382 12.324-1.029 15.95-1.438l6.591-.745-4.092 6.7c-2.25 3.684-4.375 6.98-4.72 7.323-.771.766-3.618 5.7-5.927 10.269-.947 1.873-2.212 3.71-2.811 4.08-.6.37-1.89 2.206-2.87 4.08-6.954 13.304-9.691 16.507-14.107 16.507-1.934 0-11.033 1.234-20.22 2.741-16.462 2.701-16.75 2.805-20.003 7.175-1.816 2.438-3.587 4.714-3.936 5.057-2.502 2.461-7.597 11.294-7.036 12.201.396.642 3.77.451 7.917-.448 3.974-.861 11.718-2.216 17.208-3.011s11.245-1.744 12.79-2.11c2.022-.478 2.807-.103 2.807 1.343 0 1.104-.494 2.007-1.097 2.007s-1.747 1.572-2.543 3.493c-.796 1.922-3.659 5.773-6.362 8.558-4.016 4.138-6.234 5.311-12.118 6.412-3.961.74-13.659 2.543-21.55 4.004-23.016 4.261-62.884 14.09-78.82 19.43-3.204 1.074-8.82 2.715-12.477 3.647-7.642 1.947-13.27 3.814-34.102 11.313-8.235 2.964-16.938 6.068-19.34 6.896-11.423 3.94-18.63 6.7-24.565 9.406-3.56 1.624-7.055 2.953-7.765 2.953s-3.974 1.183-7.252 2.628a6343 6343 0 0 1-11.575 5.088c-9.589 4.201-15.34 6.78-22.459 10.072-10.694 4.944-47.34 23.321-54.276 27.218-3.432 1.928-7.388 4.043-8.792 4.7-2.18 1.02-20.703 11.884-26.912 15.783-1.108.696-4.196 2.543-6.862 4.104-10.886 6.376-13.612 8.09-14.206 8.934-.344.488-1.467 1.275-2.496 1.751-3.333 1.54-24.94 16.12-38.68 26.1-10.58 7.686-26.826 19.975-28.698 21.71-1.03.953-4.117 3.43-6.862 5.5-5.735 4.33-6.383 4.841-15.616 12.34-3.764 3.057-7.8 6.425-8.967 7.486s-2.863 2.49-3.768 3.177c-3.625 2.752-19.346 16.385-23.679 20.534-2.538 2.431-8.09 7.509-12.338 11.283-11.94 10.61-59.782 59.048-59.782 60.528 0 .339-1.879 2.44-4.175 4.67-5.953 5.777-17.327 18.678-19.532 22.154-1.03 1.623-3.135 4.174-4.679 5.669s-2.807 3.355-2.807 4.134-.473 1.416-1.05 1.416-7.338 8.001-15.021 17.78-15.072 19.092-16.418 20.694-2.448 3.13-2.448 3.395c0 .264-3.369 4.96-7.486 10.436-4.118 5.475-7.487 10.545-7.487 11.266s-.429 1.312-.953 1.312-2.341 2.246-4.038 4.99c-1.696 2.746-3.513 4.992-4.038 4.992-.524 0-.953.533-.953 1.185s-1.825 3.79-4.055 6.972-4.617 6.72-5.303 7.861c-.686 1.14-3.353 5.22-5.927 9.065-2.573 3.846-4.679 7.636-4.679 8.423s-.458 1.43-1.018 1.43-2.384 2.311-4.055 5.136-4.004 6.615-5.185 8.422-3.302 5.252-4.711 7.654c-2.567 4.374-5.326 8.946-9.975 16.532-1.367 2.23-3.16 5.46-3.985 7.175s-2.19 3.961-3.035 4.99-3.177 4.96-5.182 8.735c-4.004 7.535-10.68 19.894-17.524 32.44-2.434 4.462-10.647 20.625-18.252 35.92l-13.827 27.807Zm5.914-50.753c2.207-4.088 7.396-13.89 11.531-21.781 4.136-7.892 9.883-18.742 12.772-24.112 5.861-10.893 5.794-7.254.59-31.725-1.204-5.661-2.56-10.293-3.012-10.293s-2.055 2.386-3.563 5.302c-1.507 2.917-4.425 8.11-6.483 11.542-2.059 3.431-4.303 7.362-4.988 8.734-1.16 2.326-2.273 4.287-9.91 17.468-9.955 17.186-10.326 18.132-9.51 24.274.43 3.245 1.55 8.937 2.489 12.649s2.086 8.89 2.55 11.507c.464 2.618 1.446 4.559 2.183 4.313.736-.245 3.144-3.79 5.351-7.878m41.828-76.594c0-.637 2.246-4.54 4.991-8.673s4.991-7.797 4.991-8.143 1.414-2.76 3.142-5.364 3.834-5.782 4.68-7.062c.844-1.28 2.433-3.526 3.53-4.991 5.484-7.328 18.518-27.286 19.179-29.368.683-2.153-3.663-31.066-4.848-32.25-.393-.393-17.465 24.344-23.811 34.499-.687 1.098-3.354 5.225-5.927 9.171-12.002 18.404-13.57 21.076-13.55 23.102.01 1.19.983 8.481 2.162 16.202 1.491 9.776 2.645 14.037 3.801 14.037.913 0 1.66-.522 1.66-1.16m57.396-86.392c1.716-2.824 3.692-5.757 4.393-6.517s3.499-4.471 6.22-8.246c5.903-8.189 6.88-9.453 9.444-12.225 3.244-3.505 16.659-21.435 17.983-24.035.677-1.33 1.634-2.42 2.127-2.42 1.257 0 2.038-5.907 2.928-22.147.616-11.236.439-14.025-.887-13.978-1.589.057-10.606 10.59-26.611 31.086-4.118 5.272-8.329 10.548-9.358 11.723a2497 2497 0 0 1-3.206 3.654c-.734.834-3.851 4.936-6.927 9.115l-5.592 7.6 1.857 15.795c1.083 9.212 2.41 15.782 3.184 15.763.729-.019 2.73-2.344 4.445-5.168m60.61-78.085c8.638-9.578 26.185-28.322 36.88-39.397l12.021-12.446.811-10.107c.446-5.559 1.136-12.493 1.534-15.41.465-3.41.243-5.303-.623-5.303-.74 0-5.276 3.93-10.08 8.734s-8.986 8.735-9.293 8.735c-.825 0-21.53 21.132-29.473 30.079-6.62 7.456-6.87 8-7.077 15.34-.247 8.774.76 23.206 1.62 23.206.322 0 1.978-1.544 3.68-3.431m69.29-72.22c.928-1.119 7.595-7.126 14.813-13.35 7.22-6.223 15.372-13.453 18.117-16.066 5.897-5.614 6.764-6.376 15.182-13.341 5.834-4.827 6.53-5.95 7.298-11.778.466-3.542 1.568-9.958 2.449-14.258 1.661-8.115.527-11.466-2.485-7.346-.83 1.134-2.12 2.062-2.868 2.062s-1.81.77-2.358 1.712c-.549.941-4.928 4.658-9.732 8.26-4.804 3.6-9.652 7.463-10.773 8.581-1.122 1.12-4.733 4.28-8.026 7.025-3.292 2.745-10.023 8.792-14.958 13.437l-8.972 8.445-.822 9.023c-.451 4.963-1.148 11.41-1.548 14.326-.575 4.193-.337 5.303 1.134 5.303 1.023 0 2.62-.916 3.549-2.035m77.798-66.279c2.213-1.887 5.304-4.273 6.869-5.303s3.478-2.433 4.252-3.12c2.202-1.952 11.127-8.599 13.405-9.981 1.13-.686 5.562-3.774 9.85-6.863 4.286-3.088 8.701-6.176 9.812-6.862 7.541-4.661 11.437-8.668 12.518-12.875.65-2.526 2.316-8.787 3.703-13.912s2.25-9.592 1.915-9.927c-.84-.839-9.245 3.791-9.245 5.093 0 .578-.587 1.051-1.305 1.051s-7.221 4.071-14.451 9.046c-7.23 4.976-14.299 9.698-15.708 10.493-1.41.796-2.907 1.927-3.33 2.513-.421.586-3.855 3.177-7.63 5.758-12.796 8.751-12.424 8.25-15.04 20.221-4.028 18.434-3.215 21.151 4.385 14.668m82.625-57.53c3.994-2.648 10.541-6.719 14.55-9.047 4.007-2.327 8.78-5.135 10.605-6.239a460 460 0 0 1 7.998-4.679c2.573-1.47 6.784-3.89 9.358-5.378 2.573-1.489 6.767-3.74 9.32-5.002 5.262-2.602 6.611-4.596 7.892-11.655.496-2.732 1.59-6.372 2.431-8.087 2.697-5.498 3.361-9.982 1.48-9.982-1.704 0-12.658 5.379-20.811 10.218-2.402 1.426-7.456 4.255-11.23 6.287-13.748 7.402-31.387 18.815-33.071 21.398-.95 1.457-2.311 5.175-3.025 8.263s-2.106 8.23-3.095 11.428c-1.521 4.923-1.52 7.288.01 7.288.18 0 3.596-2.166 7.59-4.813zm91.95-51.305c35.661-17.008 41.65-19.786 44.453-20.62 4.871-1.448 6.357-3.155 10.308-11.851 4.896-10.772 6.027-14.755 4.465-15.72-1.262-.78-7.207 1.306-16.645 5.842-2.745 1.32-5.446 2.397-6.004 2.395-1.253-.004-10.882 4.43-29.399 13.541-11.453 5.635-14.51 7.71-15.84 10.756-2.604 5.958-8.024 20.332-8.024 21.278 0 1.475 6.155-.598 16.686-5.621m74.79-33.278c.444-.444 3.485-1.744 6.759-2.888 14.37-5.022 40.01-13.668 44.007-14.839 14.127-4.137 13.44-3.518 21.357-19.21.606-1.201 1.79-3.293 2.63-4.648 2.786-4.492-.227-5.206-9.676-2.295-26.989 8.316-55.515 18.224-57.732 20.051-.892.735-2.764 3.912-4.162 7.06-1.397 3.147-3.615 7.845-4.929 10.44s-2.389 5.261-2.389 5.927c0 1.36 2.896 1.64 4.135.402m102.547-32.872c6.176-1.43 16.564-3.956 23.083-5.612 6.52-1.657 14.942-3.782 18.716-4.723 6.197-1.546 7.31-2.368 11.474-8.483 2.537-3.724 4.642-7.404 4.68-8.177.036-.774.909-2.106 1.938-2.96 5.33-4.424-.37-4.835-17.062-1.232-6.4 1.381-17.25 3.718-24.113 5.193-26.788 5.758-24.166 4.433-30.124 15.21-6.753 12.213-7.543 16.584-2.63 14.548 1.545-.64 7.862-2.334 14.038-3.764" style="fill:#000;stroke-width:1.24774"/><path id="path5" d="M667.794 1020.337c2.416-4.976 5.415-11.292 6.665-14.037s5.207-10.887 8.794-18.093 6.994-14.083 7.57-15.284 1.569-3.235 2.206-4.52c1.596-3.218 11.216-20.9 14.68-26.986 1.564-2.745 3.833-6.956 5.043-9.358s2.526-4.648 2.923-4.99c.397-.344 2.362-3.71 4.367-7.483s5.75-10.061 8.324-13.976 4.68-7.432 4.68-7.814c0-.383 3.224-5.604 7.164-11.602 3.941-5.999 7.45-11.468 7.799-12.154.348-.687 3.44-5.387 6.872-10.446 3.43-5.059 6.85-10.249 7.597-11.533s2.291-3.366 3.431-4.626 2.073-2.92 2.073-3.69c0-.769.703-1.848 1.563-2.397 1.297-.827 6.084-7.423 12.786-17.618a81 81 0 0 1 2.755-3.868c.829-1.084 3.202-4.217 5.274-6.962s4.553-5.833 5.514-6.862c.96-1.03 4.599-5.66 8.085-10.29 7.725-10.258 8.966-11.78 11.749-14.406 1.2-1.134 2.183-2.732 2.183-3.552s.433-1.677.96-1.906c.53-.229 4.587-4.908 9.02-10.398 4.43-5.49 8.63-10.606 9.332-11.37s5.487-6.094 10.634-11.847c24.064-26.896 57.29-60.146 80.91-80.969 20.642-18.196 24.486-21.526 30.244-26.202 2.958-2.402 7.429-6.052 9.936-8.11 2.507-2.06 7.028-5.512 10.048-7.673 3.019-2.16 10.626-7.775 16.904-12.477s12.664-9.39 14.19-10.42 3.408-2.453 4.182-3.164c2.57-2.362 13.368-9.313 14.466-9.313.595 0 1.269-.454 1.498-1.009.544-1.319 21.94-15.873 27.866-18.955 1.372-.714 5.022-2.95 8.11-4.97s7.3-4.532 9.358-5.583 5.708-3.12 8.11-4.595c2.402-1.476 7.456-4.373 11.23-6.44 3.774-2.066 11.074-6.12 16.22-9.008 22.503-12.627 70.199-34.806 97.948-45.547 7.549-2.922 15.41-6.033 17.468-6.912 3.783-1.617 10.099-3.993 18.092-6.806 2.402-.846 6.769-2.59 9.704-3.876s6.012-2.339 6.838-2.339 4.32-1.055 7.765-2.345 10.193-3.51 14.997-4.932 12.384-3.676 16.844-5.008c4.461-1.33 12.883-3.656 18.717-5.168a2175 2175 0 0 0 18.716-4.944c8.101-2.194 23.931-5.653 43.36-9.476l10.297-2.026 10.292 10.711c5.66 5.892 24.704 25.45 42.319 43.464 21.762 22.254 31.514 33.043 30.424 33.658-.883.497-6.619 1.473-12.747 2.167s-13.924 2.106-17.323 3.137c-3.399 1.03-7.634 1.88-9.411 1.888-1.778.007-7.393 1.06-12.478 2.338-19.245 4.839-18.271 4.983-30.026-4.466-5.727-4.604-12.659-10.452-15.404-12.995-2.745-2.544-6.996-6.215-9.448-8.157s-5.438-4.515-6.638-5.715c-3.925-3.927-13.1-4.366-18.226-.873-1.56 1.064-1.149 1.839 2.476 4.66 7.387 5.751 25.232 21.591 32.793 29.108l7.195 7.154-6.763 1.966c-3.72 1.081-7.654 1.966-8.742 1.966s-4.932 1.123-8.542 2.495-7.752 2.495-9.205 2.495-5.383 1.038-8.734 2.304c-8.589 3.247-21.624 7.369-26.127 8.262-2.87.57-4.966-.026-8.478-2.409-2.565-1.74-4.943-3.165-5.283-3.165s-2.14-1.035-4-2.3-5.627-3.725-8.372-5.467-10.044-6.452-16.22-10.467c-9.59-6.236-12.05-7.291-16.845-7.231-3.088.038-6.95.789-8.582 1.667l-2.967 1.598 3.225 2.99c1.774 1.644 3.513 2.99 3.866 2.99 1.198 0 12.563 8.1 13.567 9.67.548.857 1.812 1.56 2.807 1.56s1.836.42 1.868.935 2.86 2.9 6.285 5.303c3.424 2.402 8.284 6.166 10.798 8.365 4.131 3.613 4.337 4.076 2.137 4.812-6.377 2.132-17.2 6.341-27.537 10.711-6.258 2.645-12.02 4.81-12.806 4.81s-2.404.533-3.595 1.184c-5.79 3.164-18.82 8.63-22.337 9.368-3.36.706-7.933-1.134-30.688-12.348-16.085-7.927-28.24-13.177-30.507-13.177-2.072 0-5.388 1.227-7.368 2.728l-4.132 3.132c-.977.742 4.244 4.042 6.46 4.082 1.2.022 2.183.516 2.183 1.098s2.246 2.071 4.99 3.309c2.746 1.238 4.992 2.623 4.992 3.078s1.825 1.796 4.055 2.98c4.783 2.541 6.338 3.486 17.53 10.65 9.256 5.923 9.252 5.763.25 10.392-2.059 1.058-7.954 4.246-13.101 7.084s-11.464 6.078-14.037 7.2c-2.573 1.123-4.68 2.432-4.68 2.91s-2.245 1.882-4.99 3.12-4.991 2.727-4.991 3.309-.817 1.058-1.816 1.058c-1.692 0-8.067 3.768-13.722 8.11-1.341 1.03-2.845 1.872-3.344 1.872s-5.48 2.911-11.07 6.47c-5.592 3.559-10.544 5.945-11.007 5.303-.929-1.29-4.708-2.843-19.556-8.037-27.035-9.455-40.403-11.436-47.102-6.98-1.887 1.256-3.431 2.667-3.431 3.137s2.105 1.588 4.679 2.485c9.469 3.303 45.345 19.849 47.43 21.874.383.372-13.247 10.684-14.123 10.684-.578 0-12.79 9.346-17.087 13.077-1.2 1.043-2.745 1.896-3.431 1.896s-1.248.503-1.248 1.118-2.919 2.99-6.486 5.28-7.919 5.427-9.67 6.973c-14.56 12.855-26.382 21.566-29.27 21.566-1.623 0-9.051-1.994-16.507-4.43-7.455-2.437-18.426-5.021-24.38-5.744-10.625-1.289-10.94-1.25-17.156 2.133-3.482 1.896-6.332 3.896-6.332 4.446s2.387 1.643 5.303 2.43 8.045 2.494 11.396 3.794 6.844 2.362 7.762 2.362 4.737 1.404 8.487 3.12c3.751 1.715 7.068 3.119 7.371 3.119s2.687.892 5.296 1.982l4.745 1.982-6.776 6.253c-13.408 12.373-49.69 48.778-50.364 50.534-.379.986-1.185 1.487-1.792 1.112-2.767-1.71-28.24-5.932-39.765-6.59-12.488-.714-12.89-.652-17.78 2.737-5.47 3.791-6.52 6.872-2.344 6.872 2.86 0 28.125 6.439 33.918 8.644 1.932.736 4.739 1.346 6.238 1.357s3.569.597 4.598 1.303c1.601 1.097 1.466 1.568-.936 3.252-1.544 1.083-2.807 2.429-2.807 2.991s-2.386 3.543-5.303 6.624c-6.28 6.634-5.88 6.16-20.687 24.456-6.402 7.911-12.018 15.048-12.48 15.86-.62 1.089-3.138 1.182-9.571.353-4.802-.618-13.6-1.142-19.553-1.165-9.755-.037-11.187.267-14.529 3.079-2.039 1.715-4.09 3.12-4.559 3.12-.468 0-2.536 1.684-4.595 3.742l-3.743 3.744 5.399-.01c10.504-.017 37.216 2.896 37.216 4.06 0 1.423-5.125 8.881-6.505 9.467-.54.228-.981 1.034-.981 1.79 0 .757-1.063 2.535-2.362 3.952-3.526 3.847-16.413 23.156-17.683 26.495-.608 1.599-1.68 2.907-2.384 2.907-.703 0-1.278.811-1.278 1.802s-1.292 3.304-2.872 5.14c-2.598 3.021-4.05 3.443-15.284 4.435-6.828.602-14.94 1.624-18.029 2.27-3.088.647-7.751 1.522-10.363 1.944-3.63.588-6.55 2.57-12.4 8.42-4.207 4.208-6.984 7.873-6.17 8.144.815.272 4.316-.114 7.782-.858 5.632-1.208 38.62-1.993 38.62-.919 0 .972-4.237 8.972-5.058 9.55-.488.343-1.935 2.662-3.217 5.154s-4.742 9.23-7.689 14.973-6.71 12.688-8.362 15.433-3.395 5.75-3.87 6.675c-1.885 3.672-7.543 8.183-14.147 11.28-6.743 3.163-7.762 3.269-35.359 3.671l-28.415.415 3.013-6.653c6.143-13.562 13.569-29.407 18.493-39.458 2.788-5.69 4.693-10.721 4.232-11.181s-4.882.503-9.826 2.142c-15.933 5.28-18.348 6.433-18.348 8.761 0 1.214-.82 2.888-1.824 3.72-1.003.833-2.175 2.726-2.605 4.208s-2.96 7.187-5.624 12.677-6.404 13.485-8.313 17.767l-3.47 7.786-11.427.013-11.427.013zm65.23-60.846c3.786-1.203 8.4-2.537 10.252-2.964 2.56-.59 4.807-3.199 9.358-10.868 3.295-5.55 7.394-10.817 9.11-11.703 7.565-3.907 24.938-9.817 36.36-12.37 2.349-.524 4.229-2.523 6.55-6.962 1.79-3.424 3.255-6.804 3.255-7.511 0-1.647-8.198-.52-18.092 2.487-4.117 1.251-8.978 2.603-10.802 3.004s-4.274 1.097-5.446 1.547c-3.314 1.271-1.401-3.173 6.051-14.058 3.55-5.184 7.09-10.547 7.87-11.918.778-1.37 2.04-3.119 2.807-3.884 4.215-4.216-1.908-3.997-18.236.652-8.454 2.407-9.287 2.968-13.248 8.934-8.084 12.175-15.786 24.38-15.786 25.017 0 .351-1.873 3.598-4.163 7.214-3.942 6.227-9.264 15.773-17.098 30.67l-3.485 6.627 3.929-.863c2.16-.474 7.027-1.847 10.813-3.05m51.802-91.066c5.367-1.373 11.289-2.496 13.16-2.496 2.376 0 4.294-1.2 6.352-3.971 6.37-8.582 10.614-12.02 17.277-14 3.691-1.096 8.153-2.004 9.916-2.017 1.763-.014 7.697-.836 13.187-1.828s10.103-1.823 10.25-1.847 1.91-1.648 3.916-3.609c3.835-3.748 6.993-8.756 6.09-9.658-.292-.293-6.373.038-13.513.736-27.69 2.708-25.05 2.749-23.412-.36 1.504-2.852 15.022-20.868 18.852-25.124 1.201-1.335 2.184-3.482 2.184-4.771 0-1.646-.65-2.153-2.184-1.7-1.2.353-6.499 1.223-11.773 1.931-7.597 1.02-10.254 1.953-12.79 4.488-1.759 1.76-3.199 3.531-3.199 3.936s-1.263 2.01-2.807 3.569c-1.544 1.558-3.37 3.6-4.055 4.536-.687.937-3.798 5.06-6.914 9.164-3.116 4.103-6.603 8.864-7.748 10.58s-4.336 6.207-7.09 9.981c-9.395 12.871-12.561 17.593-12.561 18.735 0 .628-1.123 1.742-2.496 2.477-2.494 1.335-3.425 3.743-1.447 3.743.576 0 5.439-1.123 10.805-2.495m70.224-84.302 10.333-.873 4.64-5.957c7.317-9.393 10.184-10.33 33.338-10.903l19.964-.493 5.303-5.144c2.917-2.83 5.303-5.798 5.303-6.597 0-.798-2.228-1.808-4.952-2.244-5.187-.83-31.877 1.089-35.732 2.568-1.968.756-1.92.421.412-2.802 1.455-2.013 8.024-9.416 14.596-16.452s11.95-13.287 11.95-13.891c0-1.753-4.896-2.603-15.098-2.622l-9.484-.017-9.232 9.791c-10.322 10.946-23.857 26.01-29.32 32.632-1.982 2.402-4.235 4.929-5.006 5.615-3.438 3.06-13.977 17.909-13.236 18.65.452.453 1.962.55 3.356.217s7.182-.998 12.865-1.478m73.972-79.152h9.752l10.324-9.67c5.679-5.318 11.633-10.933 13.232-12.477s3.123-2.808 3.386-2.808 2.98-2.386 6.04-5.302c3.058-2.917 8.79-8.11 12.738-11.542a1579 1579 0 0 0 10.437-9.14c1.792-1.597 4.522-3.767 6.066-4.823 4.306-2.946 3.423-5.008-2.496-5.832-19.092-2.657-17.86-2.78-24.32 2.415-6.297 5.063-13.853 11.805-18.428 16.444-1.522 1.544-3.048 2.808-3.389 2.808-2.418 0-42.243 38.75-41.335 40.22.41.663 2.432.869 4.493.457 2.061-.413 8.136-.75 13.5-.75m94.21-23.767c3.04-2.091 5.527-4.21 5.527-4.71 0-.498-4.352-1.644-9.67-2.547-18.771-3.186-20.883-3.194-27.369-.104-5.673 2.702-12.527 7.23-11.48 7.583 3.368 1.133 21.28 3.295 28.33 3.42 8.275.146 9.653-.196 14.661-3.642m8.395-53.904c4.256-2.917 8.083-5.775 8.505-6.352s1.886-1.7 3.253-2.495 4.952-3.12 7.967-5.165 6.423-4.29 7.574-4.99 6.326-4.222 11.499-7.825 9.666-6.55 9.984-6.55 3.96-2.246 8.092-4.991 7.834-4.991 8.226-4.991c1.921 0 10.66-6.8 10.265-7.986-.25-.75-2.374-1.73-4.72-2.18-2.345-.448-7.373-1.523-11.173-2.39-3.8-.865-8.36-1.209-10.135-.763-3.054.766-46.653 29.481-56.572 37.259-.686.538-7.069 5.244-14.184 10.458-7.641 5.6-12.477 9.937-11.815 10.599 1.052 1.052 14.26 3.157 22.005 3.507 2.246.101 6.252-1.734 11.23-5.145m95.925-19.81c3.008-1.187 5.547-4.471 4.368-5.65-.253-.253-6.756-1.79-14.452-3.417l-13.993-2.957-8.041 3.392c-9.033 3.81-10.406 4.766-7.898 5.49 1.664.48 20.81 3.993 27.317 5.012 3.72.583 8.133-.067 12.7-1.87m6.017-44.738c0-.458 5.755-3.656 12.789-7.107 13.303-6.527 19.193-9.306 49.95-23.571 19.119-8.867 21.861-11.446 13.902-13.074-2.102-.43-5.695-1.716-7.982-2.857-5.566-2.777-12.24-2.612-17.22.425-2.247 1.37-4.943 2.49-5.992 2.49-1.048 0-3.982 1.086-6.52 2.413s-12.624 6.395-22.414 11.262c-19.683 9.785-26.527 13.447-28.304 15.141-.652.622-2.196 1.13-3.432 1.13s-2.247.421-2.249.936c0 .515-3.11 2.56-6.907 4.544s-6.7 4.23-6.45 4.99c.952 2.887 30.829 6.063 30.829 3.278m100.287-5.75c4.093-1.571 2.5-2.921-11.501-9.742-8.075-3.933-19.592-4.46-25.19-1.154l-3.543 2.093 3.35 1.814c1.843.997 7.281 3.426 12.085 5.397 7.13 2.926 10.013 3.476 15.7 2.997 3.83-.323 7.925-.955 9.099-1.405m90.784-34.398c5.34-1.6 6.108-2.97 2.335-4.167-1.368-.434-3.204-1.455-4.08-2.268-3.163-2.938-16.9-9.588-19.792-9.581-4.984.012-12.502 2.565-11.999 4.074.982 2.947 20.395 13.249 25.113 13.327 1.98.033 5.77-.59 8.423-1.385m-83.134-8.423c2.054-.624 7.666-2.623 12.47-4.441 14.628-5.538 27.899-10.102 45.367-15.603 9.168-2.887 16.186-5.708 15.596-6.267-1.045-.992-6.285-4.044-15.696-9.143-5.038-2.73-4.22-2.833-22.185 2.814a3540 3540 0 0 1-16.22 5.038c-5.147 1.585-12.1 3.926-15.451 5.203s-6.742 2.322-7.534 2.322c-1.171 0-8.916 3.077-24.117 9.581-2.947 1.261-1.556 3.946 2.495 4.819 2.23.48 5.74 1.748 7.799 2.817 2.058 1.07 5.708 2.341 8.11 2.826s4.651.946 5 1.025c.347.079 2.312-.367 4.366-.991m183.303-13.667c.69-1.116-3.752-5.483-12.371-12.163-8.342-6.465-9.588-6.845-17.335-5.29l-6.962 1.398 10.9 8.546c10.551 8.272 11.13 8.547 18.002 8.566 3.906.01 7.4-.465 7.766-1.057m-72.886-20.085c5.147-1.268 14.973-3.51 21.835-4.984 6.863-1.473 17.367-3.895 23.343-5.383 10.533-2.622 10.8-2.777 8.734-5.08-1.172-1.308-5.5-4.624-9.618-7.37l-7.486-4.992-8.11 1.43c-23.11 4.073-68.626 15.271-68.626 16.885 0 1.72 5.558 5.168 15.57 9.662 8.076 3.624 8.99 3.618 24.358-.168" style="fill:#000;stroke-width:1.24774"/><path id="path6" d="M1057.317 1024.704c-2.71-6.308-14.833-42.26-14.833-43.989 0-.565 2.948.107 6.55 1.492a1137 1137 0 0 0 11.514 4.351c2.729 1.008 8.796 3.756 13.481 6.108s9.122 4.276 9.858 4.276c1.878 0 .22-9.457-2.458-14.02-2.21-3.765-7.867-6.863-32.083-17.571l-12.477-5.518-1.424-6.712c-.783-3.692-2.327-10.06-3.431-14.15s-2.007-8.81-2.007-10.49-1.09-9.002-2.422-16.27c-2.908-15.876-4.062-34.283-2.05-32.705.744.584 2.756 1.37 4.472 1.75 1.715.378 7.891 2.628 13.725 5 5.833 2.37 12.79 4.703 15.458 5.183l4.853.871-.86-5.377c-.473-2.958-1.79-5.946-2.928-6.64-4.266-2.605-21.174-11.859-28.754-15.737-4.324-2.213-8.32-4.915-8.877-6.004-3.062-5.982-2.319-57.39.845-58.445.85-.284 1.547-1.213 1.547-2.066s1.356-2.824 3.013-4.381l3.014-2.832 13.519 7.814c7.435 4.297 14.515 8.66 15.732 9.696 3.4 2.894 4.835.283 4.405-8.014-.302-5.827-.89-7.592-2.875-8.628-1.373-.716-6.354-3.771-11.069-6.789l-8.573-5.486 14.812-14.715c8.146-8.093 15.15-14.737 15.564-14.765s.484 2.75.155 6.175c-.64 6.665.26 8.409 9.685 18.728 2.193 2.402 5.363 5.982 7.043 7.955 1.68 1.974 3.278 3.365 3.551 3.092s.86-7.783 1.306-16.69c1.234-24.708 4.866-44.266 8.22-44.266.8 0 2.077-.78 2.84-1.734 1.9-2.38 19.72-15.907 20.253-15.374.236.236-.14 2.357-.835 4.713-1.387 4.706-5.553 30.657-7.597 47.332-.715 5.833-1.287 26.095-1.27 45.027.042 51.182 5.149 89.385 19.08 142.757a4156 4156 0 0 1 5.007 19.34c.784 3.088 2.4 8.422 3.592 11.853l4.332 12.478c1.191 3.431 2.432 7.642 2.757 9.358.324 1.715 1.661 5.5 2.97 8.408 1.31 2.91 2.381 6.16 2.381 7.225s1.123 4.136 2.495 6.826 2.496 5.475 2.496 6.189c0 .812-4.672 1.298-12.477 1.298-8.511 0-12.478-.453-12.478-1.424 0-3.422-5.48-11.925-9.122-14.155-16.943-10.372-23.14-13.714-23.943-12.912-.337.338 1.35 6.67 3.749 14.07 2.399 7.402 4.361 13.674 4.361 13.939s-11.53.482-25.623.482h-25.622zm65.746-33.065a3366 3366 0 0 1-4.967-16.533c-1.84-6.176-3.951-12.914-4.691-14.973-.74-2.058-2.068-6.831-2.953-10.605a1806 1806 0 0 0-3.596-14.973c-1.094-4.46-2.31-10.303-2.704-12.982-.492-3.358-2.176-6.363-5.418-9.67-2.587-2.64-5.148-4.798-5.69-4.798-.544 0-2.206-1.264-3.694-2.808-4.718-4.895-10.615-9.67-11.942-9.67-.706 0-1.002 1.263-.658 2.808s1.501 7.58 2.572 13.413c3.291 17.926 5.683 28.677 10.011 45.01 7.19 27.127 5.738 24.599 19.14 33.332 6.542 4.264 12.866 7.752 14.052 7.752 1.961 0 2.01-.484.538-5.303m-26.197-105.434c-1.384-7.666-3.115-33.118-3.882-57.084-.543-16.97-1.208-23.45-2.723-26.514-1.102-2.23-2.421-4.056-2.932-4.056-.51 0-3.925-3.93-7.589-8.734-3.663-4.803-7.032-8.734-7.486-8.734-3.339 0-1.596 88.052 1.825 92.206 3.075 3.734 20.264 17.5 21.909 17.546 1.313.037 1.522-1.065.878-4.63" style="fill:#000;stroke-width:1.24774"/><path id="path7" d="M1192.462 1029.133c-.824-.823-1.5-2.087-1.503-2.807-.01-1.297-6.116-17.79-9.269-25.017-.898-2.06-4.19-11.324-7.316-20.588-10.7-31.709-16.669-54.12-22.1-82.974-.774-4.118-2.296-11.698-3.382-16.845s-2.414-13.288-2.95-18.092-1.907-16.314-3.047-25.579c-1.605-13.053-1.948-23.866-1.525-48.038.565-32.242 2.438-49.725 7.248-67.663 1.33-4.96 2.419-9.862 2.419-10.891 0-1.03 1.109-5.393 2.464-9.697 1.356-4.303 3.053-10.179 3.773-13.056 1.154-4.617 2.417-5.974 10.741-11.542 5.189-3.47 9.721-6.31 10.072-6.31.352 0 2.302-1.184 4.335-2.631 4.81-3.426 5.807-2.21 2.934 3.583-6.093 12.289-17.065 46.463-14.918 46.463 1.04 0 12.767-8.303 21.162-14.983 5.717-4.548 8.158-7.401 8.788-10.27.78-3.547 3.86-10.744 6.817-15.923.587-1.03 3.094-5.894 5.57-10.81s5.32-9.618 6.319-10.447c.999-.83 1.816-1.975 1.816-2.547 0-1.397 5.88-9.988 8.517-12.445 2.42-2.255 35.66-18.553 58.237-28.554a1071 1071 0 0 0 10.606-4.787c5.462-2.505 26.713-10.68 39.304-15.12 16.304-5.748 19.009-6.636 23.083-7.575 2.402-.554 6.894-1.885 9.982-2.96 7.947-2.764 21.136-6.375 34.936-9.565 6.52-1.507 14.661-3.502 18.093-4.434 10.206-2.77 25.791-5.75 26.48-5.062.352.353-.97.992-2.938 1.422-4.404.962-17.464 5.066-26.662 8.38-17.315 6.238-20.93 7.606-25.924 9.813-2.935 1.297-6.146 2.359-7.136 2.359s-3.8 1.123-6.244 2.495-5.066 2.496-5.828 2.496c-3.41 0-44.877 20.634-58.349 29.035-18.694 11.658-38.622 28.631-50.143 42.71-3.37 4.117-6.96 8.375-7.978 9.462s-1.851 2.631-1.851 3.432c0 .8-.498 1.455-1.106 1.455s-2.083 2.105-3.279 4.679c-1.195 2.573-2.83 5.52-3.632 6.55-3.361 4.311-10.914 27.187-13.182 39.928-1.425 8.007-1.549 8.19-9.675 14.349-4.527 3.431-9.063 7.066-10.08 8.077-1.016 1.01-5.272 4.57-9.457 7.908-6.048 4.825-7.786 7.007-8.473 10.639-1.326 7.011-1.158 12.68.375 12.68 1.813 0 19.067-14.306 27.526-22.823l6.652-6.697.077 23.182c.066 20.125 1.792 43.512 3.839 52.015.434 1.802-.608 3.964-3.307 6.863-2.167 2.327-7.382 8.443-11.588 13.59-4.206 5.146-7.95 9.638-8.32 9.981-.369.343-2.157 2.87-3.972 5.615-2.93 4.432-3.2 5.723-2.406 11.524.492 3.593 1.217 6.855 1.612 7.25.85.849 7.22-5.269 7.22-6.933 0-.631 1.124-1.748 2.496-2.483 1.373-.734 2.496-2.158 2.496-3.163s.493-1.828 1.096-1.828 3.55-3.228 6.55-7.174 6.107-7.867 6.903-8.712c.797-.846 1.703-2.25 2.013-3.12 1.05-2.943 2.2-.11 3.968 9.779 2.704 15.129 9.364 41.338 13.44 52.898 3.68 10.434 3.504 16.168-.654 21.294-3.92 4.832-5 6.248-12.771 16.762-3.044 4.118-6.293 8.329-7.22 9.358-3.318 3.682-3.439 5.039-.954 10.657 2.257 5.103 2.783 5.554 5.056 4.338 1.395-.747 2.538-1.76 2.54-2.25.01-1.75 24.452-26.554 25.317-25.689.485.486.88 1.772.879 2.858 0 1.718 1.89 6.2 6.633 15.7a176 176 0 0 1 2.102 4.368c.471 1.03 2.07 4.398 3.552 7.486s2.692 6.177 2.688 6.863c-.01 1.173 12.005 26.264 20.162 42.111l3.692 7.175h-60.892l-1.956-4.056c-1.076-2.23-3.223-6.862-4.772-10.293-4.85-10.743-7.222-14.98-8.26-14.759-1.65.354-12.848 23.267-12.852 26.3 0 2.71-.407 2.808-11.607 2.808-7.362 0-12.152-.548-13.102-1.498m21.032-25.017c1.288-1.544 2.374-3.65 2.412-4.679s1.167-3.275 2.509-4.99c1.342-1.717 2.452-3.638 2.468-4.27.014-.632.96-2.18 2.099-3.438 1.932-2.135 1.92-2.773-.165-9.457-1.23-3.942-3.285-9.325-4.567-11.964-1.282-2.638-2.33-5.715-2.33-6.838s-1.056-4.86-2.346-8.304-3.51-10.194-4.935-14.997a7619 7619 0 0 0-3.984-13.396c-2.612-8.728-3.675-8.046-12.06 7.733-1.655 3.115-3.54 6.196-4.191 6.848-1.601 1.605-1.491 7.24.225 11.523.774 1.932 1.852 5.477 2.395 7.88.995 4.394 6.754 22.182 8.686 26.826.57 1.372 2.524 6.962 4.341 12.421 1.817 5.46 3.58 10.372 3.916 10.918 1.077 1.742 3.119 1.071 5.527-1.816m-24.725-92.379c10.16-14.535 10.292-14.872 8.736-22.329-7.453-35.707-7.297-34.834-9.638-53.985-1.087-8.887-2.191-16.374-2.455-16.638-.442-.441-2.187 2.16-14.22 21.198l-4.175 6.606 2.097 13.725c2.01 13.15 4.357 24.74 8.844 43.671 1.14 4.804 2.35 10.278 2.69 12.166s1.072 3.43 1.628 3.43 3.477-3.53 6.493-7.844m-12.298-101.838 9.503-12.982v-23.63c0-18.358.537-26.317 2.41-35.679 2.26-11.3 3.044-16.876 2.719-19.331-.156-1.173-14.898 10.09-20.872 15.947-3.79 3.713-3.927 4.249-5.307 20.657-2.352 27.964-1.637 72.01 1.12 69.007.509-.553 5.2-6.848 10.427-13.989" style="fill:#000;stroke-width:1.24774"/></g></svg>